<?xml version="1.0" encoding="UTF-8" standalone="no"?>
<!-- Created with Inkscape (http://www.inkscape.org/) -->

<svg
   width="32"
   height="32"
   viewBox="0 0 8.4666666 8.4666666"
   version="1.1"
   id="svg1"
   inkscape:version="1.3.2 (091e20ef0f, 2023-11-25, custom)"
   sodipodi:docname="1f616.svg"
   inkscape:export-filename="guy.png"
   inkscape:export-xdpi="384"
   inkscape:export-ydpi="384"
   xml:space="preserve"
   xmlns:inkscape="http://www.inkscape.org/namespaces/inkscape"
   xmlns:sodipodi="http://sodipodi.sourceforge.net/DTD/sodipodi-0.dtd"
   xmlns="http://www.w3.org/2000/svg"
   xmlns:svg="http://www.w3.org/2000/svg"><sodipodi:namedview
     id="namedview1"
     pagecolor="#ffffff"
     bordercolor="#000000"
     borderopacity="0.25"
     inkscape:showpageshadow="2"
     inkscape:pageopacity="0.0"
     inkscape:pagecheckerboard="0"
     inkscape:deskcolor="#d1d1d1"
     inkscape:document-units="mm"
     showguides="true"
     inkscape:zoom="16"
     inkscape:cx="14.6875"
     inkscape:cy="9.5937499"
     inkscape:window-width="1920"
     inkscape:window-height="1054"
     inkscape:window-x="0"
     inkscape:window-y="26"
     inkscape:window-maximized="1"
     inkscape:current-layer="g11"><sodipodi:guide
       position="38.809823,206.59584"
       orientation="0,-1"
       id="guide2"
       inkscape:locked="false" /><sodipodi:guide
       position="7.6299338,3.748757"
       orientation="1,0"
       id="guide7"
       inkscape:locked="false" /><sodipodi:guide
       position="4.2344021,7.7278364"
       orientation="0,-1"
       id="guide8"
       inkscape:locked="false" /><sodipodi:guide
       position="0.83509114,3.8529948"
       orientation="1,0"
       id="guide9"
       inkscape:locked="false" /><sodipodi:guide
       position="4.2344021,0.73883016"
       orientation="0,-1"
       id="guide10"
       inkscape:locked="false" /><sodipodi:guide
       position="13.616033,4.20434"
       orientation="0,-1"
       id="guide1"
       inkscape:locked="false" /><sodipodi:guide
       position="4.2333987,4.2333333"
       orientation="1,0"
       id="guide3"
       inkscape:locked="false" /></sodipodi:namedview><defs
     id="defs1"><inkscape:path-effect
       effect="mirror_symmetry"
       start_point="4.2333333,0.45098027"
       end_point="4.2333333,8.6777958"
       center_point="4.2333333,4.564388"
       id="path-effect9"
       is_visible="true"
       lpeversion="1.2"
       lpesatellites="#g10"
       mode="vertical"
       discard_orig_path="false"
       fuse_paths="false"
       oposite_fuse="false"
       split_items="true"
       split_open="false"
       link_styles="false" /><inkscape:path-effect
       effect="mirror_symmetry"
       start_point="4.2333333,0"
       end_point="4.2333333,8.4666667"
       center_point="4.2333333,4.2333333"
       id="path-effect1"
       is_visible="true"
       lpeversion="1.2"
       lpesatellites=""
       mode="vertical"
       discard_orig_path="false"
       fuse_paths="false"
       oposite_fuse="false"
       split_items="true"
       split_open="false"
       link_styles="false" /><inkscape:path-effect
       effect="mirror_symmetry"
       start_point="4.2109789,0.00442628"
       end_point="4.2109789,8.4710929"
       center_point="4.2109789,4.2377596"
       id="path-effect20"
       is_visible="true"
       lpeversion="1.2"
       lpesatellites="#path20"
       mode="vertical"
       discard_orig_path="false"
       fuse_paths="false"
       oposite_fuse="false"
       split_items="true"
       split_open="false"
       link_styles="false" /><inkscape:path-effect
       effect="mirror_symmetry"
       start_point="4.2333986,4.9662396"
       end_point="4.2333986,6.8898319"
       center_point="4.2333986,5.9280357"
       id="path-effect19"
       is_visible="true"
       lpeversion="1.2"
       lpesatellites=""
       mode="free"
       discard_orig_path="false"
       fuse_paths="true"
       oposite_fuse="false"
       split_items="false"
       split_open="false"
       link_styles="false" /><inkscape:path-effect
       effect="mirror_symmetry"
       start_point="4.2333969,5.2131481"
       end_point="4.2333969,6.0796415"
       center_point="4.2333969,5.6463948"
       id="path-effect18"
       is_visible="true"
       lpeversion="1.2"
       lpesatellites=""
       mode="free"
       discard_orig_path="false"
       fuse_paths="true"
       oposite_fuse="false"
       split_items="false"
       split_open="false"
       link_styles="false" /><inkscape:path-effect
       effect="mirror_symmetry"
       start_point="4.2333969,4.8417469"
       end_point="4.2333969,6.9755248"
       center_point="4.2333969,5.9086358"
       id="path-effect15"
       is_visible="true"
       lpeversion="1.2"
       lpesatellites=""
       mode="free"
       discard_orig_path="false"
       fuse_paths="true"
       oposite_fuse="false"
       split_items="false"
       split_open="false"
       link_styles="false" /><inkscape:path-effect
       effect="mirror_symmetry"
       start_point="4.2321553,6.3542803"
       end_point="4.2321553,6.3542803"
       center_point="4.2321553,6.3542803"
       id="path-effect8"
       is_visible="true"
       lpeversion="1.2"
       lpesatellites=""
       mode="vertical"
       discard_orig_path="false"
       fuse_paths="false"
       oposite_fuse="false"
       split_items="false"
       split_open="false"
       link_styles="false" /><inkscape:path-effect
       effect="mirror_symmetry"
       start_point="3.7333489,0.51466146"
       end_point="3.7333489,8.2305048"
       center_point="3.7333489,4.3725831"
       id="path-effect7"
       is_visible="true"
       lpeversion="1.2"
       lpesatellites="#g7"
       mode="vertical"
       discard_orig_path="false"
       fuse_paths="false"
       oposite_fuse="false"
       split_items="true"
       split_open="false"
       link_styles="false" /><inkscape:path-effect
       effect="mirror_symmetry"
       start_point="4.2333333,0"
       end_point="4.2333333,8.4666667"
       center_point="4.2333333,4.2333333"
       id="path-effect5"
       is_visible="true"
       lpeversion="1.2"
       lpesatellites=""
       mode="vertical"
       discard_orig_path="false"
       fuse_paths="false"
       oposite_fuse="false"
       split_items="false"
       split_open="false"
       link_styles="false" /><inkscape:path-effect
       effect="powerstroke"
       id="path-effect11"
       is_visible="true"
       lpeversion="1.3"
       scale_width="1"
       interpolator_type="CentripetalCatmullRom"
       interpolator_beta="0.2"
       start_linecap_type="zerowidth"
       end_linecap_type="zerowidth"
       offset_points="0.22690433,0.107688 | 0.53457588,0.21098948 | 0.88867914,0.24449304 | 1.2,0.25 | 1.5,0.25 | 1.8,0.25"
       linejoin_type="round"
       miter_limit="4"
       not_jump="false"
       sort_points="true"
       message="&lt;b&gt;Ctrl + click&lt;/b&gt; on existing node and move it" /><inkscape:path-effect
       effect="mirror_symmetry"
       start_point="4.2333333,-0.50677083"
       end_point="4.2333333,7.9598958"
       center_point="4.2333333,3.7265625"
       id="path-effect6"
       is_visible="true"
       lpeversion="1.2"
       lpesatellites=""
       mode="vertical"
       discard_orig_path="false"
       fuse_paths="true"
       oposite_fuse="false"
       split_items="false"
       split_open="false"
       link_styles="false" /><inkscape:path-effect
       effect="mirror_symmetry"
       start_point="6.1496393,0"
       end_point="6.1496393,6.3620848"
       center_point="6.1496393,3.1810424"
       id="path-effect4"
       is_visible="true"
       lpeversion="1.2"
       lpesatellites=""
       mode="free"
       discard_orig_path="false"
       fuse_paths="false"
       oposite_fuse="false"
       split_items="false"
       split_open="false"
       link_styles="false" /></defs><g
     inkscape:label="Layer 1"
     inkscape:groupmode="layer"
     id="layer1"><g
       id="g7"
       transform="matrix(1.0291548,0,0,1.0291548,-0.123422,-0.46412851)"
       style="stroke-width:0.971671"
       inkscape:label="Base"><path
         id="path1"
         style="fill:#5080e2;fill-opacity:1;stroke-width:0.0257087;stroke-linecap:round;stroke-linejoin:round"
         d="m 4.2324219,0.66210937 c -1.9384355,0 -3.39648443,1.58876093 -3.3964844,3.39453123 3e-8,1.8754174 1.521067,3.3964844 3.3964844,3.3964844 h 0.00195 c 1.8754174,0 3.3964844,-1.521067 3.3964844,-3.3964844 0,-1.8754174 -1.521067,-3.39453124 -3.3964844,-3.39453123 z"
         transform="translate(0,0.50677083)"
         sodipodi:nodetypes="sssssss"
         inkscape:label="Head" /><g
         id="g5"
         inkscape:path-effect="#path-effect9"
         inkscape:label="Left Ear"><path
           style="fill:#e1aeeb;fill-opacity:1;stroke-width:0.0257087;stroke-linecap:round;stroke-linejoin:round"
           d="M 0.1719444,2.6465499 C 0.00826399,2.7486836 0.28892067,3.2254047 0.39985014,3.3949543 0.5107796,3.5645038 0.61582,3.7200717 0.88754221,3.9949761 c 0,0 0.0713058,-0.3752606 0.22192809,-0.6239782 C 1.2600926,3.1222803 1.4830607,2.9278158 1.4830607,2.9278158 1.4182309,2.5678135 0.2775358,2.5907973 0.1719444,2.6465499 Z"
           id="path2"
           inkscape:original-d="M 0.1719444,2.6465499 C 0.00826399,2.7486836 0.28892067,3.2254047 0.39985014,3.3949543 0.5107796,3.5645038 0.61582,3.7200717 0.88754221,3.9949761 c 0,0 0.0713058,-0.3752606 0.22192809,-0.6239782 C 1.2600926,3.1222803 1.4830607,2.9278158 1.4830607,2.9278158 1.4182309,2.5678135 0.2775358,2.5907973 0.1719444,2.6465499 Z"
           sodipodi:nodetypes="czczcc"
           inkscape:label="Inner" /><path
           style="fill:#3b71de;fill-opacity:1;stroke-width:0.0257087;stroke-linecap:round;stroke-linejoin:round"
           d="M 0.93135955,2.4265584 C 0.4582053,2.4780391 0.15770278,2.5852915 0.1282487,2.7073784 0.19113254,2.7962408 0.70567084,2.8970176 1.4830613,2.9278157 1.6748888,2.7766473 2.00459,2.6003928 2.2059875,2.5574691 1.6927837,2.3993494 1.2597513,2.3908283 0.93135955,2.4265584 Z"
           id="path4"
           sodipodi:nodetypes="scccs"
           inkscape:original-d="M 0.93135955,2.4265584 C 0.4582053,2.4780391 0.15770278,2.5852915 0.1282487,2.7073784 0.19113254,2.7962408 0.70567084,2.8970176 1.4830613,2.9278157 1.6748888,2.7766473 2.00459,2.6003928 2.2059875,2.5574691 1.6927837,2.3993494 1.2597513,2.3908283 0.93135955,2.4265584 Z"
           inkscape:label="Outer" /></g><g
         id="g10"
         transform="matrix(-1,0,0,1,8.4666667,0)"
         inkscape:label="Right Ear"><path
           id="path9"
           d="M 0.1719444,2.6465499 C 0.00826399,2.7486836 0.28892067,3.2254047 0.39985014,3.3949543 0.5107796,3.5645038 0.61582,3.7200717 0.88754221,3.9949761 c 0,0 0.0713058,-0.3752606 0.22192809,-0.6239782 C 1.2600926,3.1222803 1.4830607,2.9278158 1.4830607,2.9278158 1.4182309,2.5678135 0.2775358,2.5907973 0.1719444,2.6465499 Z"
           style="fill:#e1aeeb;fill-opacity:1;stroke-width:0.0257087;stroke-linecap:round;stroke-linejoin:round"
           inkscape:label="Inner" /><path
           id="path10"
           d="M 0.93135955,2.4265584 C 0.4582053,2.4780391 0.15770278,2.5852915 0.1282487,2.7073784 0.19113254,2.7962408 0.70567084,2.8970176 1.4830613,2.9278157 1.6748888,2.7766473 2.00459,2.6003928 2.2059875,2.5574691 1.6927837,2.3993494 1.2597513,2.3908283 0.93135955,2.4265584 Z"
           style="stroke-width:0.0257087;fill:#3b71de;fill-opacity:1;stroke-linecap:round;stroke-linejoin:round"
           inkscape:label="Outer" /></g></g><g
       id="g11"
       transform="matrix(0.14224259,0,0,0.1424503,1.4606184,1.9907707)"
       inkscape:label="Face"
       style="stroke-width:1.85873"><path
         d="m 3.1063454,8.9284979 c -0.7538008,0 -1.3655813,-0.6105589 -1.3655813,-1.3628546 0,-0.750933 0.6076837,-1.3601289 1.3601189,-1.3628549 0.2130308,-0.00273 4.8737595,-0.1172052 8.473431,-4.9062761 0.452008,-0.59965581 1.306861,-0.72503888 1.911814,-0.2725709 0.603587,0.4511049 0.725124,1.3056146 0.273116,1.9079964 C 9.303353,8.860355 3.3576124,8.9284979 3.1063454,8.9284979 Z m 32.7739506,0 c -0.251267,0 -6.195641,-0.068143 -10.651535,-5.9965601 -0.453373,-0.6023818 -0.330471,-1.4568915 0.273116,-1.9079964 0.602222,-0.45383056 1.457075,-0.32981046 1.910448,0.2725709 3.6065,4.798611 8.276789,4.9049132 8.474797,4.9062761 0.75107,0.00818 1.357388,0.6214619 1.353292,1.369669 -0.0026,0.7509331 -0.609048,1.3560405 -1.360118,1.3560405 z M 3.1077109,21.19419 c -0.4151366,0 -0.824811,-0.188074 -1.0938305,-0.545142 -0.453373,-0.601019 -0.3304706,-1.455529 0.2731163,-1.906633 0.1952781,-0.145826 4.0298301,-2.975112 9.3624243,-3.997253 -3.3798132,-1.691303 -7.1310648,-1.7281 -7.1788599,-1.7281 -0.7538008,-0.0027 -1.3642157,-0.613284 -1.3628502,-1.36558 0,-0.750934 0.6104149,-1.36013 1.3642157,-1.36013 0.3017933,0 7.4451484,0.05179 11.8901154,4.487881 0.390556,0.389777 0.507996,0.975804 0.296331,1.485512 -0.211665,0.509707 -0.710102,0.840881 -1.261797,0.840881 -6.2994258,0 -11.4203553,3.777833 -11.4708821,3.815993 -0.2458045,0.183985 -0.5339422,0.272571 -0.817983,0.272571 z M 35.87893,21.19289 c -0.28404,0 -0.570813,-0.08722 -0.816618,-0.269845 -0.05189,-0.03954 -5.20423,-3.817375 -11.472248,-3.817375 -0.551695,0 -1.051498,-0.331174 -1.261797,-0.840881 -0.211666,-0.509708 -0.09423,-1.095735 0.296331,-1.485512 4.446332,-4.436092 11.588324,-4.487881 11.890115,-4.487881 0.753802,0 1.362851,0.609196 1.364217,1.36013 0.0015,0.752296 -0.609048,1.362854 -1.361484,1.36558 -0.04916,0 -3.800415,0.0368 -7.180227,1.7281 5.332596,1.022141 9.167147,3.850064 9.361059,3.997253 0.602221,0.451104 0.725122,1.302888 0.274481,1.90527 -0.267653,0.355705 -0.677326,0.545142 -1.093829,0.545142 z M 19.49332,32.097027 c -0.415137,0 -0.807058,-0.188074 -1.066519,-0.511071 l -4.361667,-5.440516 -3.038418,4.043591 c -0.237611,0.316182 -0.600855,0.513796 -0.995508,0.541053 -0.3960189,0.02862 -0.783844,-0.115843 -1.0624228,-0.395228 L 7.6032043,28.972001 c -0.5339425,-0.532876 -0.5339425,-1.3942 0,-1.927076 0.5339424,-0.532877 1.3969895,-0.532877 1.9309319,0 l 0.2526325,0.252128 3.1517613,-4.194867 c 0.253998,-0.337988 0.648651,-0.53969 1.070616,-0.545142 0.402846,-0.01363 0.823445,0.18126 1.087002,0.511071 l 4.397172,5.484127 4.395806,-5.484127 c 0.263557,-0.328448 0.660941,-0.511071 1.088368,-0.511071 0.42333,0.0068 0.817983,0.207154 1.070616,0.545142 l 3.153126,4.193504 0.252634,-0.252128 c 0.533942,-0.532876 1.39699,-0.532876 1.930931,0 0.533944,0.532876 0.533944,1.3942 0,1.927076 l -1.36558,1.362855 c -0.279944,0.279385 -0.654116,0.427936 -1.062423,0.395228 -0.394653,-0.02862 -0.757898,-0.224871 -0.995509,-0.541053 l -3.039784,-4.04359 -4.3603,5.440516 c -0.260827,0.324359 -0.652749,0.512433 -1.067885,0.512433 z"
         id="path2-5"
         style="fill:#0f2757;fill-opacity:1;stroke-width:8.73359"
         inkscape:label="Face" /></g></g></svg>
