<?xml version="1.0" encoding="UTF-8" standalone="no"?>
<!-- Created with Inkscape (http://www.inkscape.org/) -->

<svg
   width="32"
   height="32"
   viewBox="0 0 8.4666666 8.4666666"
   version="1.1"
   id="svg1"
   inkscape:version="1.3.2 (091e20ef0f, 2023-11-25, custom)"
   sodipodi:docname="1f970.svg"
   inkscape:export-filename="guy.png"
   inkscape:export-xdpi="384"
   inkscape:export-ydpi="384"
   xml:space="preserve"
   xmlns:inkscape="http://www.inkscape.org/namespaces/inkscape"
   xmlns:sodipodi="http://sodipodi.sourceforge.net/DTD/sodipodi-0.dtd"
   xmlns="http://www.w3.org/2000/svg"
   xmlns:svg="http://www.w3.org/2000/svg"><sodipodi:namedview
     id="namedview1"
     pagecolor="#ffffff"
     bordercolor="#000000"
     borderopacity="0.25"
     inkscape:showpageshadow="2"
     inkscape:pageopacity="0.0"
     inkscape:pagecheckerboard="0"
     inkscape:deskcolor="#d1d1d1"
     inkscape:document-units="mm"
     showguides="true"
     inkscape:zoom="16"
     inkscape:cx="8.03125"
     inkscape:cy="14.71875"
     inkscape:window-width="1920"
     inkscape:window-height="1054"
     inkscape:window-x="0"
     inkscape:window-y="26"
     inkscape:window-maximized="1"
     inkscape:current-layer="g11"><sodipodi:guide
       position="38.809823,206.59584"
       orientation="0,-1"
       id="guide2"
       inkscape:locked="false" /><sodipodi:guide
       position="7.6299338,3.748757"
       orientation="1,0"
       id="guide7"
       inkscape:locked="false" /><sodipodi:guide
       position="4.2344021,7.7278364"
       orientation="0,-1"
       id="guide8"
       inkscape:locked="false" /><sodipodi:guide
       position="0.83509114,3.8529948"
       orientation="1,0"
       id="guide9"
       inkscape:locked="false" /><sodipodi:guide
       position="4.2344021,0.73883016"
       orientation="0,-1"
       id="guide10"
       inkscape:locked="false" /><sodipodi:guide
       position="4.2333987,4.2333333"
       orientation="0,-1"
       id="guide1"
       inkscape:locked="false" /><sodipodi:guide
       position="4.2333987,4.2333333"
       orientation="1,0"
       id="guide3"
       inkscape:locked="false" /></sodipodi:namedview><defs
     id="defs1"><inkscape:path-effect
       effect="mirror_symmetry"
       start_point="4.2333333,0.45098027"
       end_point="4.2333333,8.6777958"
       center_point="4.2333333,4.564388"
       id="path-effect9"
       is_visible="true"
       lpeversion="1.2"
       lpesatellites=""
       mode="vertical"
       discard_orig_path="false"
       fuse_paths="false"
       oposite_fuse="false"
       split_items="true"
       split_open="false"
       link_styles="false" /><inkscape:path-effect
       effect="mirror_symmetry"
       start_point="4.2333333,0"
       end_point="4.2333333,8.4666667"
       center_point="4.2333333,4.2333333"
       id="path-effect1"
       is_visible="true"
       lpeversion="1.2"
       lpesatellites=""
       mode="vertical"
       discard_orig_path="false"
       fuse_paths="false"
       oposite_fuse="false"
       split_items="true"
       split_open="false"
       link_styles="false" /><inkscape:path-effect
       effect="mirror_symmetry"
       start_point="4.2109789,0.00442628"
       end_point="4.2109789,8.4710929"
       center_point="4.2109789,4.2377596"
       id="path-effect20"
       is_visible="true"
       lpeversion="1.2"
       lpesatellites="#path20"
       mode="vertical"
       discard_orig_path="false"
       fuse_paths="false"
       oposite_fuse="false"
       split_items="true"
       split_open="false"
       link_styles="false" /><inkscape:path-effect
       effect="mirror_symmetry"
       start_point="4.2333986,4.9662396"
       end_point="4.2333986,6.8898319"
       center_point="4.2333986,5.9280357"
       id="path-effect19"
       is_visible="true"
       lpeversion="1.2"
       lpesatellites=""
       mode="free"
       discard_orig_path="false"
       fuse_paths="true"
       oposite_fuse="false"
       split_items="false"
       split_open="false"
       link_styles="false" /><inkscape:path-effect
       effect="mirror_symmetry"
       start_point="4.2333969,5.2131481"
       end_point="4.2333969,6.0796415"
       center_point="4.2333969,5.6463948"
       id="path-effect18"
       is_visible="true"
       lpeversion="1.2"
       lpesatellites=""
       mode="free"
       discard_orig_path="false"
       fuse_paths="true"
       oposite_fuse="false"
       split_items="false"
       split_open="false"
       link_styles="false" /><inkscape:path-effect
       effect="mirror_symmetry"
       start_point="4.2333969,4.8417469"
       end_point="4.2333969,6.9755248"
       center_point="4.2333969,5.9086358"
       id="path-effect15"
       is_visible="true"
       lpeversion="1.2"
       lpesatellites=""
       mode="free"
       discard_orig_path="false"
       fuse_paths="true"
       oposite_fuse="false"
       split_items="false"
       split_open="false"
       link_styles="false" /><inkscape:path-effect
       effect="mirror_symmetry"
       start_point="4.2321553,6.3542803"
       end_point="4.2321553,6.3542803"
       center_point="4.2321553,6.3542803"
       id="path-effect8"
       is_visible="true"
       lpeversion="1.2"
       lpesatellites=""
       mode="vertical"
       discard_orig_path="false"
       fuse_paths="false"
       oposite_fuse="false"
       split_items="false"
       split_open="false"
       link_styles="false" /><inkscape:path-effect
       effect="mirror_symmetry"
       start_point="3.7333489,0.51466146"
       end_point="3.7333489,8.2305048"
       center_point="3.7333489,4.3725831"
       id="path-effect7"
       is_visible="true"
       lpeversion="1.2"
       lpesatellites="#g7"
       mode="vertical"
       discard_orig_path="false"
       fuse_paths="false"
       oposite_fuse="false"
       split_items="true"
       split_open="false"
       link_styles="false" /><inkscape:path-effect
       effect="mirror_symmetry"
       start_point="4.2333333,0"
       end_point="4.2333333,8.4666667"
       center_point="4.2333333,4.2333333"
       id="path-effect5"
       is_visible="true"
       lpeversion="1.2"
       lpesatellites=""
       mode="vertical"
       discard_orig_path="false"
       fuse_paths="false"
       oposite_fuse="false"
       split_items="false"
       split_open="false"
       link_styles="false" /><inkscape:path-effect
       effect="powerstroke"
       id="path-effect11"
       is_visible="true"
       lpeversion="1.3"
       scale_width="1"
       interpolator_type="CentripetalCatmullRom"
       interpolator_beta="0.2"
       start_linecap_type="zerowidth"
       end_linecap_type="zerowidth"
       offset_points="0.22690433,0.107688 | 0.53457588,0.21098948 | 0.88867914,0.24449304 | 1.2,0.25 | 1.5,0.25 | 1.8,0.25"
       linejoin_type="round"
       miter_limit="4"
       not_jump="false"
       sort_points="true"
       message="&lt;b&gt;Ctrl + click&lt;/b&gt; on existing node and move it" /><inkscape:path-effect
       effect="mirror_symmetry"
       start_point="4.2333333,-0.50677083"
       end_point="4.2333333,7.9598958"
       center_point="4.2333333,3.7265625"
       id="path-effect6"
       is_visible="true"
       lpeversion="1.2"
       lpesatellites=""
       mode="vertical"
       discard_orig_path="false"
       fuse_paths="true"
       oposite_fuse="false"
       split_items="false"
       split_open="false"
       link_styles="false" /><inkscape:path-effect
       effect="mirror_symmetry"
       start_point="6.1496393,0"
       end_point="6.1496393,6.3620848"
       center_point="6.1496393,3.1810424"
       id="path-effect4"
       is_visible="true"
       lpeversion="1.2"
       lpesatellites=""
       mode="free"
       discard_orig_path="false"
       fuse_paths="false"
       oposite_fuse="false"
       split_items="false"
       split_open="false"
       link_styles="false" /><inkscape:path-effect
       effect="mirror_symmetry"
       start_point="4.2323584,0.45098022"
       end_point="4.2323584,8.6777958"
       center_point="4.2323584,4.564388"
       id="path-effect9-2"
       is_visible="true"
       lpeversion="1.2"
       lpesatellites="#g10-7"
       mode="vertical"
       discard_orig_path="false"
       fuse_paths="false"
       oposite_fuse="false"
       split_items="true"
       split_open="false"
       link_styles="false" /><inkscape:path-effect
       effect="mirror_symmetry"
       start_point="4.2333333,0"
       end_point="4.2333333,8.4666667"
       center_point="4.2333333,4.2333333"
       id="path-effect1-7"
       is_visible="true"
       lpeversion="1.2"
       lpesatellites=""
       mode="vertical"
       discard_orig_path="false"
       fuse_paths="false"
       oposite_fuse="false"
       split_items="true"
       split_open="false"
       link_styles="false" /><inkscape:path-effect
       effect="mirror_symmetry"
       start_point="4.2109789,0.00442628"
       end_point="4.2109789,8.4710929"
       center_point="4.2109789,4.2377596"
       id="path-effect20-0"
       is_visible="true"
       lpeversion="1.2"
       lpesatellites=""
       mode="vertical"
       discard_orig_path="false"
       fuse_paths="false"
       oposite_fuse="false"
       split_items="true"
       split_open="false"
       link_styles="false" /><inkscape:path-effect
       effect="mirror_symmetry"
       start_point="4.2333986,4.9662396"
       end_point="4.2333986,6.8898319"
       center_point="4.2333986,5.9280357"
       id="path-effect19-9"
       is_visible="true"
       lpeversion="1.2"
       lpesatellites=""
       mode="free"
       discard_orig_path="false"
       fuse_paths="true"
       oposite_fuse="false"
       split_items="false"
       split_open="false"
       link_styles="false" /><inkscape:path-effect
       effect="mirror_symmetry"
       start_point="4.2333969,5.2131481"
       end_point="4.2333969,6.0796415"
       center_point="4.2333969,5.6463948"
       id="path-effect18-3"
       is_visible="true"
       lpeversion="1.2"
       lpesatellites=""
       mode="free"
       discard_orig_path="false"
       fuse_paths="true"
       oposite_fuse="false"
       split_items="false"
       split_open="false"
       link_styles="false" /><inkscape:path-effect
       effect="mirror_symmetry"
       start_point="4.2333969,4.8417469"
       end_point="4.2333969,6.9755248"
       center_point="4.2333969,5.9086358"
       id="path-effect15-6"
       is_visible="true"
       lpeversion="1.2"
       lpesatellites=""
       mode="free"
       discard_orig_path="false"
       fuse_paths="true"
       oposite_fuse="false"
       split_items="false"
       split_open="false"
       link_styles="false" /><inkscape:path-effect
       effect="mirror_symmetry"
       start_point="4.2321553,6.3542803"
       end_point="4.2321553,6.3542803"
       center_point="4.2321553,6.3542803"
       id="path-effect8-0"
       is_visible="true"
       lpeversion="1.2"
       lpesatellites=""
       mode="vertical"
       discard_orig_path="false"
       fuse_paths="false"
       oposite_fuse="false"
       split_items="false"
       split_open="false"
       link_styles="false" /><inkscape:path-effect
       effect="mirror_symmetry"
       start_point="3.7333489,0.51466146"
       end_point="3.7333489,8.2305048"
       center_point="3.7333489,4.3725831"
       id="path-effect7-6"
       is_visible="true"
       lpeversion="1.2"
       lpesatellites=""
       mode="vertical"
       discard_orig_path="false"
       fuse_paths="false"
       oposite_fuse="false"
       split_items="true"
       split_open="false"
       link_styles="false" /><inkscape:path-effect
       effect="mirror_symmetry"
       start_point="4.2333333,0"
       end_point="4.2333333,8.4666667"
       center_point="4.2333333,4.2333333"
       id="path-effect5-2"
       is_visible="true"
       lpeversion="1.2"
       lpesatellites=""
       mode="vertical"
       discard_orig_path="false"
       fuse_paths="false"
       oposite_fuse="false"
       split_items="false"
       split_open="false"
       link_styles="false" /><inkscape:path-effect
       effect="powerstroke"
       id="path-effect11-6"
       is_visible="true"
       lpeversion="1.3"
       scale_width="1"
       interpolator_type="CentripetalCatmullRom"
       interpolator_beta="0.2"
       start_linecap_type="zerowidth"
       end_linecap_type="zerowidth"
       offset_points="0.22690433,0.107688 | 0.53457588,0.21098948 | 0.88867914,0.24449304 | 1.2,0.25 | 1.5,0.25 | 1.8,0.25"
       linejoin_type="round"
       miter_limit="4"
       not_jump="false"
       sort_points="true"
       message="&lt;b&gt;Ctrl + click&lt;/b&gt; on existing node and move it" /><inkscape:path-effect
       effect="mirror_symmetry"
       start_point="4.2333333,-0.50677083"
       end_point="4.2333333,7.9598958"
       center_point="4.2333333,3.7265625"
       id="path-effect6-1"
       is_visible="true"
       lpeversion="1.2"
       lpesatellites=""
       mode="vertical"
       discard_orig_path="false"
       fuse_paths="true"
       oposite_fuse="false"
       split_items="false"
       split_open="false"
       link_styles="false" /><inkscape:path-effect
       effect="mirror_symmetry"
       start_point="6.1496393,0"
       end_point="6.1496393,6.3620848"
       center_point="6.1496393,3.1810424"
       id="path-effect4-8"
       is_visible="true"
       lpeversion="1.2"
       lpesatellites=""
       mode="free"
       discard_orig_path="false"
       fuse_paths="false"
       oposite_fuse="false"
       split_items="false"
       split_open="false"
       link_styles="false" /></defs><g
     inkscape:label="Layer 1"
     inkscape:groupmode="layer"
     id="layer1"><g
       id="g7"
       transform="matrix(1.0291548,0,0,1.0291548,-0.123422,-0.46412851)"
       style="stroke-width:0.971671"
       inkscape:label="Base"><path
         id="path1"
         style="fill:#5080e2;fill-opacity:1;stroke-width:0.0257087;stroke-linecap:round;stroke-linejoin:round"
         d="m 4.2324219,0.66210937 c -1.9384355,0 -3.39648443,1.58876093 -3.3964844,3.39453123 3e-8,1.8754174 1.521067,3.3964844 3.3964844,3.3964844 h 0.00195 c 1.8754174,0 3.3964844,-1.521067 3.3964844,-3.3964844 0,-1.8754174 -1.521067,-3.39453124 -3.3964844,-3.39453123 z"
         transform="translate(0,0.50677083)"
         sodipodi:nodetypes="sssssss"
         inkscape:label="Head" /><g
         id="g5"
         inkscape:label="Left Ear"><path
           style="fill:#e1aeeb;fill-opacity:1;stroke-width:0.0257087;stroke-linecap:round;stroke-linejoin:round"
           d="m 0.28331245,1.654279 c -0.15793221,0.098006 -0.0533003,0.6468411 -0.006098,0.9333044 0.0472025,0.2864633 0.16160882,1.083244 0.61032776,1.4073927 0,0 0.0713058,-0.3752606 0.22192809,-0.6239782 C 1.2600926,3.1222803 1.4830607,2.9278158 1.4830607,2.9278158 1.4182309,2.5678135 0.64085576,1.7104817 0.28331245,1.654279 Z"
           id="path2"
           sodipodi:nodetypes="czczcc"
           inkscape:label="Inner" /><path
           style="fill:#3b71de;fill-opacity:1;stroke-width:0.0257087;stroke-linecap:round;stroke-linejoin:round"
           d="M 1.4738335,1.9123284 C 1.1767039,1.739068 0.81057197,1.5982752 0.56789986,1.5887822 0.38499814,1.5816274 0.28331245,1.654279 0.28331245,1.654279 0.56272743,1.747063 1.0089299,2.047381 1.4830613,2.9278157 1.6748888,2.7766473 2.00459,2.6003928 2.2059875,2.5574691 2.0041541,2.2936083 1.7150993,2.0530139 1.4738335,1.9123284 Z"
           id="path4"
           sodipodi:nodetypes="sscccs"
           inkscape:label="Outer" /></g><g
         id="g10"
         transform="matrix(-1,0,0,1,8.4666667,0)"
         inkscape:label="Right Ear"><path
           id="path9"
           d="m 0.28331245,1.654279 c -0.15793221,0.098006 -0.0533003,0.6468411 -0.006098,0.9333044 0.0472025,0.2864633 0.16160882,1.083244 0.61032776,1.4073927 0,0 0.0713058,-0.3752606 0.22192809,-0.6239782 C 1.2600926,3.1222803 1.4830607,2.9278158 1.4830607,2.9278158 1.4182309,2.5678135 0.64085576,1.7104817 0.28331245,1.654279 Z"
           style="fill:#e1aeeb;fill-opacity:1;stroke-width:0.0257087;stroke-linecap:round;stroke-linejoin:round"
           inkscape:label="Inner" /><path
           id="path10"
           d="M 1.4738335,1.9123284 C 1.1767039,1.739068 0.81057197,1.5982752 0.56789986,1.5887822 0.38499814,1.5816274 0.28331245,1.654279 0.28331245,1.654279 0.56272743,1.747063 1.0089299,2.047381 1.4830613,2.9278157 1.6748888,2.7766473 2.00459,2.6003928 2.2059875,2.5574691 2.0041541,2.2936083 1.7150993,2.0530139 1.4738335,1.9123284 Z"
           style="stroke-width:0.0257087;fill:#3b71de;fill-opacity:1;stroke-linecap:round;stroke-linejoin:round"
           inkscape:label="Outer" /></g></g><g
       id="g11"
       transform="matrix(0.14224259,0,0,0.1424503,1.4606184,1.9907707)"
       inkscape:label="Face"
       style="stroke-width:1.85873"><path
         d="m 16.766537,14.322678 c -0.572293,0 -1.104977,-0.361157 -1.296196,-0.932193 -0.277269,-0.816349 -1.390441,-3.156371 -2.801369,-3.156371 -1.450538,0 -2.578734,2.489935 -2.8013684,3.156371 C 9.6285789,14.103259 8.8596027,14.491672 8.1397972,14.25181 7.424089,14.014673 7.037552,13.241934 7.2765767,12.527798 7.4473085,12.014002 9.0576516,7.5070417 12.670338,7.5070417 c 3.612686,0 5.221664,4.5069603 5.393761,5.0207563 0.239025,0.714136 -0.147512,1.486875 -0.86322,1.724012 -0.144781,0.04906 -0.290927,0.07087 -0.434342,0.07087 z m 13.658549,0 c -0.572293,0 -1.104976,-0.361157 -1.29483,-0.932193 -0.277269,-0.816349 -1.391806,-3.156371 -2.802734,-3.156371 -1.450538,0 -2.580101,2.489935 -2.802735,3.156371 -0.239024,0.712774 -1.005269,1.101187 -1.727806,0.861325 -0.714342,-0.237137 -1.102245,-1.009876 -0.863221,-1.724012 0.170732,-0.513796 1.781075,-5.0207563 5.392396,-5.0207563 3.61132,0 5.221663,4.5069603 5.392395,5.0207563 0.239025,0.714136 -0.147512,1.486875 -0.86322,1.724012 -0.142049,0.04906 -0.28683,0.07087 -0.430245,0.07087 z m 1.823417,5.087537 c -0.243122,-0.21942 -0.60644,-0.233048 -0.867318,-0.03952 -0.05327,0.03952 -5.356883,3.952279 -11.882938,3.952279 -6.509665,0 -11.8310356,-3.912756 -11.8829383,-3.952279 -0.2608783,-0.193525 -0.6241955,-0.177171 -0.8673179,0.03952 -0.2417562,0.218057 -0.2963905,0.57785 -0.1283902,0.855873 0.1761952,0.293013 4.3939554,7.145447 12.8786464,7.145447 8.484691,0 12.703816,-6.852434 12.878646,-7.145447 0.168001,-0.279386 0.114732,-0.636454 -0.12839,-0.855873 z"
         id="path1-7"
         style="fill:#0f2757;fill-opacity:1;stroke-width:8.73359"
         inkscape:label="Face" /><path
         d="m 23.908592,-3.4094249 c 0,0.3270852 0.04098,0.6432675 0.112001,0.9485471 0.580488,3.6020248 4.594736,7.4016636 7.471226,8.4456103 2.274149,-0.824527 5.253078,-3.374428 6.68996,-6.18599739 -2.853273,-3.32536571 -6.582057,-5.87935561 -10.829866,-7.30762741 -1.955905,0.3502539 -3.443321,2.0470081 -3.443321,4.0994674 z M 13.683802,30.840477 c 0.07785,-0.32981 0.122928,-0.67325 0.122928,-1.027592 0,-2.498113 -2.029661,-4.523315 -4.5332732,-4.523315 -1.5201966,0 -2.8601002,0.748207 -3.6837109,1.893005 C 4.7675012,26.03914 3.426232,25.28957 1.9060351,25.28957 c -1.69502566,0 -3.1564906,0.939007 -3.933662,2.314127 2.49131928,4.490607 6.3512254,8.118526 11.0197176,10.322263 2.2359043,-1.841218 4.2764913,-4.506961 4.6917113,-7.085483 z M 41.76305,26.157708 c -0.385171,-1.294712 -1.573465,-2.244621 -2.996686,-2.244621 -1.053075,0 -1.981857,0.517884 -2.551418,1.311066 -0.569562,-0.793182 -1.498343,-1.311066 -2.551418,-1.311066 -1.734635,0 -3.1401,1.402377 -3.1401,3.133203 0,0.245314 0.03141,0.48245 0.08468,0.71141 0.419318,2.596238 3.207028,5.309682 5.339127,6.215981 2.425758,-2.180568 4.413079,-4.834046 5.815812,-7.815973 z"
         id="path2-5"
         style="fill:#1e4db0;fill-opacity:1;stroke-width:8.73359"
         inkscape:label="Hearts Shadows" /><path
         d="m 40.839731,-4.3334405 c 0,-2.3059501 -1.873953,-4.1744243 -4.183613,-4.1744243 -1.402734,0 -2.640199,0.6909677 -3.399614,1.74718 -0.759416,-1.0562123 -1.99688,-1.74718 -3.399613,-1.74718 -2.311027,0 -4.183614,1.8684742 -4.183614,4.1744243 0,0.3270853 0.04098,0.6432675 0.112,0.9485471 0.581854,3.60202482 4.594736,7.4016641 7.471227,8.4456104 2.87649,-1.0439463 6.889374,-4.84358558 7.469862,-8.4442478 0.07239,-0.3066422 0.113365,-0.6228244 0.113365,-0.9499097 z M 11.587215,29.927365 c 0,-2.498113 -2.0296605,-4.523315 -4.5332724,-4.523315 -1.5201967,0 -2.8601003,0.748207 -3.6837109,1.893005 C 2.547987,26.152257 1.2067175,25.40405 -0.31347872,25.40405 c -2.50361228,0 -4.53327268,2.025202 -4.53327268,4.523315 0,0.354342 0.045073,0.696419 0.1215613,1.027592 0.629659,3.901853 4.97717502,8.019037 8.094056,9.150207 3.1168809,-1.129807 7.4643971,-5.246991 8.0940561,-9.148844 0.07922,-0.332536 0.124293,-0.675976 0.124293,-1.028955 z m 32.425399,-3.108672 c 0,-1.730825 -1.405465,-3.133203 -3.140101,-3.133203 -1.053075,0 -1.981857,0.517885 -2.551418,1.311066 -0.56956,-0.793181 -1.498345,-1.311066 -2.551418,-1.311066 -1.734636,0 -3.140101,1.402378 -3.140101,3.133203 0,0.245314 0.03141,0.482451 0.08468,0.71141 0.435708,2.702541 3.447417,5.554996 5.606836,6.337275 2.158051,-0.782279 5.171125,-3.634734 5.60547,-6.337275 0.05463,-0.228959 0.08605,-0.466096 0.08605,-0.71141 z"
         id="path3"
         style="fill:#dd2e44;fill-opacity:1;stroke-width:8.73359"
         inkscape:label="Hearts" /></g></g></svg>
