<?xml version="1.0" encoding="UTF-8" standalone="no"?>
<!-- Created with Inkscape (http://www.inkscape.org/) -->

<svg
   width="32"
   height="32"
   viewBox="0 0 8.4666666 8.4666666"
   version="1.1"
   id="svg1"
   inkscape:version="1.3.2 (091e20ef0f, 2023-11-25, custom)"
   sodipodi:docname="1f913.svg"
   inkscape:export-filename="guy.png"
   inkscape:export-xdpi="384"
   inkscape:export-ydpi="384"
   xml:space="preserve"
   xmlns:inkscape="http://www.inkscape.org/namespaces/inkscape"
   xmlns:sodipodi="http://sodipodi.sourceforge.net/DTD/sodipodi-0.dtd"
   xmlns="http://www.w3.org/2000/svg"
   xmlns:svg="http://www.w3.org/2000/svg"><sodipodi:namedview
     id="namedview1"
     pagecolor="#ffffff"
     bordercolor="#000000"
     borderopacity="0.25"
     inkscape:showpageshadow="2"
     inkscape:pageopacity="0.0"
     inkscape:pagecheckerboard="0"
     inkscape:deskcolor="#d1d1d1"
     inkscape:document-units="mm"
     showguides="true"
     inkscape:zoom="16"
     inkscape:cx="14.5"
     inkscape:cy="12.59375"
     inkscape:window-width="1920"
     inkscape:window-height="1054"
     inkscape:window-x="0"
     inkscape:window-y="26"
     inkscape:window-maximized="1"
     inkscape:current-layer="g11"><sodipodi:guide
       position="38.809823,206.59584"
       orientation="0,-1"
       id="guide2"
       inkscape:locked="false" /><sodipodi:guide
       position="7.6299338,3.748757"
       orientation="1,0"
       id="guide7"
       inkscape:locked="false" /><sodipodi:guide
       position="4.2344021,7.7278364"
       orientation="0,-1"
       id="guide8"
       inkscape:locked="false" /><sodipodi:guide
       position="0.83509114,3.8529948"
       orientation="1,0"
       id="guide9"
       inkscape:locked="false" /><sodipodi:guide
       position="4.2344021,0.73883016"
       orientation="0,-1"
       id="guide10"
       inkscape:locked="false" /><sodipodi:guide
       position="4.2333987,4.2333333"
       orientation="0,-1"
       id="guide1"
       inkscape:locked="false" /><sodipodi:guide
       position="4.2333987,4.2333333"
       orientation="1,0"
       id="guide3"
       inkscape:locked="false" /></sodipodi:namedview><defs
     id="defs1"><inkscape:path-effect
       effect="mirror_symmetry"
       start_point="4.2333333,0.45098027"
       end_point="4.2333333,8.6777958"
       center_point="4.2333333,4.564388"
       id="path-effect9"
       is_visible="true"
       lpeversion="1.2"
       lpesatellites="#g10"
       mode="vertical"
       discard_orig_path="false"
       fuse_paths="false"
       oposite_fuse="false"
       split_items="true"
       split_open="false"
       link_styles="false" /><inkscape:path-effect
       effect="mirror_symmetry"
       start_point="4.2333333,0"
       end_point="4.2333333,8.4666667"
       center_point="4.2333333,4.2333333"
       id="path-effect1"
       is_visible="true"
       lpeversion="1.2"
       lpesatellites=""
       mode="vertical"
       discard_orig_path="false"
       fuse_paths="false"
       oposite_fuse="false"
       split_items="true"
       split_open="false"
       link_styles="false" /><inkscape:path-effect
       effect="mirror_symmetry"
       start_point="4.2109789,0.00442628"
       end_point="4.2109789,8.4710929"
       center_point="4.2109789,4.2377596"
       id="path-effect20"
       is_visible="true"
       lpeversion="1.2"
       lpesatellites="#path20"
       mode="vertical"
       discard_orig_path="false"
       fuse_paths="false"
       oposite_fuse="false"
       split_items="true"
       split_open="false"
       link_styles="false" /><inkscape:path-effect
       effect="mirror_symmetry"
       start_point="4.2333986,4.9662396"
       end_point="4.2333986,6.8898319"
       center_point="4.2333986,5.9280357"
       id="path-effect19"
       is_visible="true"
       lpeversion="1.2"
       lpesatellites=""
       mode="free"
       discard_orig_path="false"
       fuse_paths="true"
       oposite_fuse="false"
       split_items="false"
       split_open="false"
       link_styles="false" /><inkscape:path-effect
       effect="mirror_symmetry"
       start_point="4.2333969,5.2131481"
       end_point="4.2333969,6.0796415"
       center_point="4.2333969,5.6463948"
       id="path-effect18"
       is_visible="true"
       lpeversion="1.2"
       lpesatellites=""
       mode="free"
       discard_orig_path="false"
       fuse_paths="true"
       oposite_fuse="false"
       split_items="false"
       split_open="false"
       link_styles="false" /><inkscape:path-effect
       effect="mirror_symmetry"
       start_point="4.2333969,4.8417469"
       end_point="4.2333969,6.9755248"
       center_point="4.2333969,5.9086358"
       id="path-effect15"
       is_visible="true"
       lpeversion="1.2"
       lpesatellites=""
       mode="free"
       discard_orig_path="false"
       fuse_paths="true"
       oposite_fuse="false"
       split_items="false"
       split_open="false"
       link_styles="false" /><inkscape:path-effect
       effect="mirror_symmetry"
       start_point="4.2321553,6.3542803"
       end_point="4.2321553,6.3542803"
       center_point="4.2321553,6.3542803"
       id="path-effect8"
       is_visible="true"
       lpeversion="1.2"
       lpesatellites=""
       mode="vertical"
       discard_orig_path="false"
       fuse_paths="false"
       oposite_fuse="false"
       split_items="false"
       split_open="false"
       link_styles="false" /><inkscape:path-effect
       effect="mirror_symmetry"
       start_point="3.7333489,0.51466146"
       end_point="3.7333489,8.2305048"
       center_point="3.7333489,4.3725831"
       id="path-effect7"
       is_visible="true"
       lpeversion="1.2"
       lpesatellites="#g7"
       mode="vertical"
       discard_orig_path="false"
       fuse_paths="false"
       oposite_fuse="false"
       split_items="true"
       split_open="false"
       link_styles="false" /><inkscape:path-effect
       effect="mirror_symmetry"
       start_point="4.2333333,0"
       end_point="4.2333333,8.4666667"
       center_point="4.2333333,4.2333333"
       id="path-effect5"
       is_visible="true"
       lpeversion="1.2"
       lpesatellites=""
       mode="vertical"
       discard_orig_path="false"
       fuse_paths="false"
       oposite_fuse="false"
       split_items="false"
       split_open="false"
       link_styles="false" /><inkscape:path-effect
       effect="powerstroke"
       id="path-effect11"
       is_visible="true"
       lpeversion="1.3"
       scale_width="1"
       interpolator_type="CentripetalCatmullRom"
       interpolator_beta="0.2"
       start_linecap_type="zerowidth"
       end_linecap_type="zerowidth"
       offset_points="0.22690433,0.107688 | 0.53457588,0.21098948 | 0.88867914,0.24449304 | 1.2,0.25 | 1.5,0.25 | 1.8,0.25"
       linejoin_type="round"
       miter_limit="4"
       not_jump="false"
       sort_points="true"
       message="&lt;b&gt;Ctrl + click&lt;/b&gt; on existing node and move it" /><inkscape:path-effect
       effect="mirror_symmetry"
       start_point="4.2333333,-0.50677083"
       end_point="4.2333333,7.9598958"
       center_point="4.2333333,3.7265625"
       id="path-effect6"
       is_visible="true"
       lpeversion="1.2"
       lpesatellites=""
       mode="vertical"
       discard_orig_path="false"
       fuse_paths="true"
       oposite_fuse="false"
       split_items="false"
       split_open="false"
       link_styles="false" /><inkscape:path-effect
       effect="mirror_symmetry"
       start_point="6.1496393,0"
       end_point="6.1496393,6.3620848"
       center_point="6.1496393,3.1810424"
       id="path-effect4"
       is_visible="true"
       lpeversion="1.2"
       lpesatellites=""
       mode="free"
       discard_orig_path="false"
       fuse_paths="false"
       oposite_fuse="false"
       split_items="false"
       split_open="false"
       link_styles="false" /><inkscape:path-effect
       effect="mirror_symmetry"
       start_point="4.2323584,0.45098022"
       end_point="4.2323584,8.6777958"
       center_point="4.2323584,4.564388"
       id="path-effect9-2"
       is_visible="true"
       lpeversion="1.2"
       lpesatellites="#g10-7"
       mode="vertical"
       discard_orig_path="false"
       fuse_paths="false"
       oposite_fuse="false"
       split_items="true"
       split_open="false"
       link_styles="false" /><inkscape:path-effect
       effect="mirror_symmetry"
       start_point="4.2333333,0"
       end_point="4.2333333,8.4666667"
       center_point="4.2333333,4.2333333"
       id="path-effect1-7"
       is_visible="true"
       lpeversion="1.2"
       lpesatellites=""
       mode="vertical"
       discard_orig_path="false"
       fuse_paths="false"
       oposite_fuse="false"
       split_items="true"
       split_open="false"
       link_styles="false" /><inkscape:path-effect
       effect="mirror_symmetry"
       start_point="4.2109789,0.00442628"
       end_point="4.2109789,8.4710929"
       center_point="4.2109789,4.2377596"
       id="path-effect20-0"
       is_visible="true"
       lpeversion="1.2"
       lpesatellites=""
       mode="vertical"
       discard_orig_path="false"
       fuse_paths="false"
       oposite_fuse="false"
       split_items="true"
       split_open="false"
       link_styles="false" /><inkscape:path-effect
       effect="mirror_symmetry"
       start_point="4.2333986,4.9662396"
       end_point="4.2333986,6.8898319"
       center_point="4.2333986,5.9280357"
       id="path-effect19-9"
       is_visible="true"
       lpeversion="1.2"
       lpesatellites=""
       mode="free"
       discard_orig_path="false"
       fuse_paths="true"
       oposite_fuse="false"
       split_items="false"
       split_open="false"
       link_styles="false" /><inkscape:path-effect
       effect="mirror_symmetry"
       start_point="4.2333969,5.2131481"
       end_point="4.2333969,6.0796415"
       center_point="4.2333969,5.6463948"
       id="path-effect18-3"
       is_visible="true"
       lpeversion="1.2"
       lpesatellites=""
       mode="free"
       discard_orig_path="false"
       fuse_paths="true"
       oposite_fuse="false"
       split_items="false"
       split_open="false"
       link_styles="false" /><inkscape:path-effect
       effect="mirror_symmetry"
       start_point="4.2333969,4.8417469"
       end_point="4.2333969,6.9755248"
       center_point="4.2333969,5.9086358"
       id="path-effect15-6"
       is_visible="true"
       lpeversion="1.2"
       lpesatellites=""
       mode="free"
       discard_orig_path="false"
       fuse_paths="true"
       oposite_fuse="false"
       split_items="false"
       split_open="false"
       link_styles="false" /><inkscape:path-effect
       effect="mirror_symmetry"
       start_point="4.2321553,6.3542803"
       end_point="4.2321553,6.3542803"
       center_point="4.2321553,6.3542803"
       id="path-effect8-0"
       is_visible="true"
       lpeversion="1.2"
       lpesatellites=""
       mode="vertical"
       discard_orig_path="false"
       fuse_paths="false"
       oposite_fuse="false"
       split_items="false"
       split_open="false"
       link_styles="false" /><inkscape:path-effect
       effect="mirror_symmetry"
       start_point="3.7333489,0.51466146"
       end_point="3.7333489,8.2305048"
       center_point="3.7333489,4.3725831"
       id="path-effect7-6"
       is_visible="true"
       lpeversion="1.2"
       lpesatellites=""
       mode="vertical"
       discard_orig_path="false"
       fuse_paths="false"
       oposite_fuse="false"
       split_items="true"
       split_open="false"
       link_styles="false" /><inkscape:path-effect
       effect="mirror_symmetry"
       start_point="4.2333333,0"
       end_point="4.2333333,8.4666667"
       center_point="4.2333333,4.2333333"
       id="path-effect5-2"
       is_visible="true"
       lpeversion="1.2"
       lpesatellites=""
       mode="vertical"
       discard_orig_path="false"
       fuse_paths="false"
       oposite_fuse="false"
       split_items="false"
       split_open="false"
       link_styles="false" /><inkscape:path-effect
       effect="powerstroke"
       id="path-effect11-6"
       is_visible="true"
       lpeversion="1.3"
       scale_width="1"
       interpolator_type="CentripetalCatmullRom"
       interpolator_beta="0.2"
       start_linecap_type="zerowidth"
       end_linecap_type="zerowidth"
       offset_points="0.22690433,0.107688 | 0.53457588,0.21098948 | 0.88867914,0.24449304 | 1.2,0.25 | 1.5,0.25 | 1.8,0.25"
       linejoin_type="round"
       miter_limit="4"
       not_jump="false"
       sort_points="true"
       message="&lt;b&gt;Ctrl + click&lt;/b&gt; on existing node and move it" /><inkscape:path-effect
       effect="mirror_symmetry"
       start_point="4.2333333,-0.50677083"
       end_point="4.2333333,7.9598958"
       center_point="4.2333333,3.7265625"
       id="path-effect6-1"
       is_visible="true"
       lpeversion="1.2"
       lpesatellites=""
       mode="vertical"
       discard_orig_path="false"
       fuse_paths="true"
       oposite_fuse="false"
       split_items="false"
       split_open="false"
       link_styles="false" /><inkscape:path-effect
       effect="mirror_symmetry"
       start_point="6.1496393,0"
       end_point="6.1496393,6.3620848"
       center_point="6.1496393,3.1810424"
       id="path-effect4-8"
       is_visible="true"
       lpeversion="1.2"
       lpesatellites=""
       mode="free"
       discard_orig_path="false"
       fuse_paths="false"
       oposite_fuse="false"
       split_items="false"
       split_open="false"
       link_styles="false" /></defs><g
     inkscape:label="Layer 1"
     inkscape:groupmode="layer"
     id="layer1"><g
       id="g7"
       transform="matrix(1.0291548,0,0,1.0291548,-0.123422,-0.46412851)"
       style="stroke-width:0.971671"
       inkscape:label="Base"><path
         id="path1"
         style="fill:#5080e2;fill-opacity:1;stroke-width:0.0257087;stroke-linecap:round;stroke-linejoin:round"
         d="m 4.2324219,0.66210937 c -1.9384355,0 -3.39648443,1.58876093 -3.3964844,3.39453123 3e-8,1.8754174 1.521067,3.3964844 3.3964844,3.3964844 h 0.00195 c 1.8754174,0 3.3964844,-1.521067 3.3964844,-3.3964844 0,-1.8754174 -1.521067,-3.39453124 -3.3964844,-3.39453123 z"
         transform="translate(0,0.50677083)"
         sodipodi:nodetypes="sssssss"
         inkscape:label="Head" /><g
         id="g5"
         inkscape:path-effect="#path-effect9"
         inkscape:label="Left Ear"><path
           style="fill:#e1aeeb;fill-opacity:1;stroke-width:0.0257087;stroke-linecap:round;stroke-linejoin:round"
           d="m 0.28331245,1.654279 c -0.15793221,0.098006 -0.0533003,0.6468411 -0.006098,0.9333044 0.0472025,0.2864633 0.16160882,1.083244 0.61032776,1.4073927 0,0 0.0713058,-0.3752606 0.22192809,-0.6239782 C 1.2600926,3.1222803 1.4830607,2.9278158 1.4830607,2.9278158 1.4182309,2.5678135 0.64085576,1.7104817 0.28331245,1.654279 Z"
           id="path2"
           inkscape:original-d="m 0.28331245,1.654279 c -0.15793221,0.098006 -0.0533003,0.6468411 -0.006098,0.9333044 0.0472025,0.2864633 0.16160882,1.083244 0.61032776,1.4073927 0,0 0.0713058,-0.3752606 0.22192809,-0.6239782 C 1.2600926,3.1222803 1.4830607,2.9278158 1.4830607,2.9278158 1.4182309,2.5678135 0.64085576,1.7104817 0.28331245,1.654279 Z"
           sodipodi:nodetypes="czczcc"
           inkscape:label="Inner" /><path
           style="fill:#3b71de;fill-opacity:1;stroke-width:0.0257087;stroke-linecap:round;stroke-linejoin:round"
           d="M 1.4738335,1.9123284 C 1.1767039,1.739068 0.81057197,1.5982752 0.56789986,1.5887822 0.38499814,1.5816274 0.28331245,1.654279 0.28331245,1.654279 0.56272743,1.747063 1.0089299,2.047381 1.4830613,2.9278157 1.6748888,2.7766473 2.00459,2.6003928 2.2059875,2.5574691 2.0041541,2.2936083 1.7150993,2.0530139 1.4738335,1.9123284 Z"
           id="path4"
           sodipodi:nodetypes="sscccs"
           inkscape:original-d="M 1.4738335,1.9123284 C 1.1767039,1.739068 0.81057197,1.5982752 0.56789986,1.5887822 0.38499814,1.5816274 0.28331245,1.654279 0.28331245,1.654279 0.56272743,1.747063 1.0089299,2.047381 1.4830613,2.9278157 1.6748888,2.7766473 2.00459,2.6003928 2.2059875,2.5574691 2.0041541,2.2936083 1.7150993,2.0530139 1.4738335,1.9123284 Z"
           inkscape:label="Outer" /></g><g
         id="g10"
         transform="matrix(-1,0,0,1,8.4666667,0)"
         inkscape:label="Right Ear"><path
           id="path9"
           d="m 0.28331245,1.654279 c -0.15793221,0.098006 -0.0533003,0.6468411 -0.006098,0.9333044 0.0472025,0.2864633 0.16160882,1.083244 0.61032776,1.4073927 0,0 0.0713058,-0.3752606 0.22192809,-0.6239782 C 1.2600926,3.1222803 1.4830607,2.9278158 1.4830607,2.9278158 1.4182309,2.5678135 0.64085576,1.7104817 0.28331245,1.654279 Z"
           style="fill:#e1aeeb;fill-opacity:1;stroke-width:0.0257087;stroke-linecap:round;stroke-linejoin:round"
           inkscape:label="Inner" /><path
           id="path10"
           d="M 1.4738335,1.9123284 C 1.1767039,1.739068 0.81057197,1.5982752 0.56789986,1.5887822 0.38499814,1.5816274 0.28331245,1.654279 0.28331245,1.654279 0.56272743,1.747063 1.0089299,2.047381 1.4830613,2.9278157 1.6748888,2.7766473 2.00459,2.6003928 2.2059875,2.5574691 2.0041541,2.2936083 1.7150993,2.0530139 1.4738335,1.9123284 Z"
           style="stroke-width:0.0257087;fill:#3b71de;fill-opacity:1;stroke-linecap:round;stroke-linejoin:round"
           inkscape:label="Outer" /></g></g><g
       id="g11"
       transform="matrix(0.14224259,0,0,0.1424503,1.4606184,1.9907707)"
       inkscape:label="Face"
       style="stroke-width:1.85873"><path
         d="m 4.2333988,5.900177 c -0.028749,0 -0.056527,-0.00214 -0.085082,-0.00311 V 6.773799 H 4.3182863 V 5.8968766 c -0.028166,9.707e-4 -0.056138,0.0033 -0.084887,0.0033 z"
         id="path2-6"
         style="fill:#0f2757;fill-opacity:1;stroke-width:0.491789"
         inkscape:label="Tooth Gap"
         transform="matrix(7.0302433,0,0,7.0199923,-10.268503,-13.975195)" /><path
         d="m 5.0104014,5.7854408 c 0.00311,-7.765e-4 -0.2816635,0.073385 -0.4751371,0.094352 -0.071096,0.00815 -0.1431628,0.014755 -0.216978,0.017278 v 0.8769261 h 0.3036138 c 0.2136757,0 0.3885013,-0.1747252 0.3885013,-0.3882781 z m -1.5540052,0 c -0.00311,-7.765e-4 0.2816634,0.073385 0.475137,0.094352 0.071096,0.00815 0.1431628,0.014755 0.216978,0.017278 V 6.7739969 H 3.8448975 c -0.2136758,0 -0.3885013,-0.1747252 -0.3885013,-0.3882781 z"
         id="path3"
         style="fill:#ffffff;stroke-width:0.491789"
         inkscape:label="Teeth"
         transform="matrix(7.0302433,0,0,7.0199923,-10.268503,-13.975195)" /><path
         d="m 6.0467286,5.3251371 c -0.034577,-0.031256 -0.086247,-0.033198 -0.1233492,-0.00563 -0.00583,0.00427 -0.4388122,0.3238239 -1.0510903,0.4795234 -0.086053,0.021938 -0.3620832,0.08348 -0.6383076,0.083674 -0.2766129,0 -0.5534201,-0.061736 -0.6394731,-0.083674 C 2.9822303,5.643331 2.5492456,5.3237781 2.5434181,5.3195071 c -0.036908,-0.027568 -0.088772,-0.025626 -0.1233492,0.00563 -0.034577,0.031062 -0.042152,0.082121 -0.01826,0.1219193 0.018842,0.031451 0.3661625,0.5954245 1.0545868,0.8699372 V 5.9619132 c -0.00311,-7.765e-4 0.2816634,0.073385 0.475137,0.094352 0.071096,0.00815 0.1431628,0.014755 0.216978,0.017278 0.028361,9.707e-4 0.056139,0.00311 0.084888,0.00311 0.028749,0 0.056527,-0.00214 0.085082,-0.00311 0.073815,-0.00252 0.1458823,-0.00893 0.216978,-0.017278 0.1934737,-0.020967 0.4782451,-0.095128 0.4751371,-0.094352 V 6.3169936 C 5.6990199,6.0424809 6.0463401,5.478507 6.0651824,5.4470564 6.088881,5.4072579 6.0813052,5.3561993 6.0467286,5.3251371 Z M 5.9086164,3.4604314 c 0,0.3327544 -0.1822071,0.6026077 -0.4071494,0.6026077 -0.224748,0 -0.4071494,-0.2698533 -0.4071494,-0.6026077 0,-0.3327543 0.1822072,-0.6026076 0.4071494,-0.6026076 0.2249423,0 0.4071494,0.2698533 0.4071494,0.6026076 z m -3.3347009,0 c 0,0.3327544 0.1822071,0.6026077 0.4071493,0.6026077 0.224748,0 0.4071494,-0.2698533 0.4071494,-0.6026077 0,-0.3327543 -0.1822071,-0.6026076 -0.4071494,-0.6026076 -0.2249422,0 -0.4071493,0.2698533 -0.4071493,0.6026076 z"
         id="path4-7"
         style="fill:#0f2757;fill-opacity:1;stroke-width:0.491789"
         inkscape:label="Mouth and Eyes"
         transform="matrix(7.0302433,0,0,7.0199923,-10.268503,-13.975195)" /><path
         d="M 7.4983637,2.606802 C 7.4651468,2.5745749 7.2522481,2.6599961 7.0368241,2.5503075 6.5923787,2.3239414 5.4692214,2.1055349 4.7380619,2.6233038 4.6597789,2.6786334 4.3326608,2.6879521 4.2411688,2.6840693 4.1496767,2.6881462 3.8225586,2.6788276 3.7442756,2.6233038 3.0133104,2.1055349 1.8901532,2.3239414 1.4457077,2.5503075 1.2302837,2.6599961 1.017385,2.5745749 0.98416814,2.606802 0.93618823,2.6532012 0.93618823,2.8389923 0.98436239,2.8855857 1.032148,2.9319849 1.2712706,2.9855673 1.318862,3.124765 1.3668419,3.2641568 1.3672304,4.0873065 1.7487387,4.3719143 2.1059656,4.6382731 2.9393009,4.7184525 3.4674684,4.4181194 3.928231,4.1562258 3.9121082,3.6048709 3.9966072,3.2763876 4.0267161,3.1593217 4.1116036,3.1003035 4.241363,3.1003035 c 0.1297595,0 0.214647,0.059018 0.2447559,0.1760841 0.084499,0.3282891 0.068182,0.8798382 0.5291387,1.1417318 C 5.5434251,4.7182584 6.3767604,4.638079 6.7337931,4.3719143 7.1154957,4.0875006 7.1158842,3.2641568 7.1636698,3.124765 7.2112612,2.9855673 7.4503838,2.9317908 7.4981694,2.8855857 7.5463436,2.8389923 7.5465378,2.6532012 7.4983637,2.606802 Z M 3.5756661,3.3154095 C 3.5607088,3.5299332 3.5224414,3.9418963 3.2654478,4.088083 3.1079105,4.1777753 2.9025876,4.2323283 2.6877463,4.2323283 H 2.6875521 C 2.449595,4.2323283 2.1197574,4.1649621 1.990775,4.0688632 1.829547,3.9486912 1.7681638,3.4540248 1.7450479,3.2690103 1.7302849,3.1511679 1.6906578,2.8632597 1.8204172,2.818996 2.0263229,2.7489118 2.3136196,2.6941646 2.6075208,2.6941646 c 0.1346157,0 0.5868312,0.00835 0.8071115,0.143857 0.1952219,0.1197838 0.1693865,0.3593514 0.1610338,0.4773879 z m 3.162012,-0.049117 C 6.7145623,3.451501 6.6531791,3.9486912 6.4919511,4.0688632 6.3629686,4.1649621 6.033131,4.2323283 5.795174,4.2323283 h -1.943e-4 c -0.2150354,0 -0.4201641,-0.054553 -0.5778956,-0.1442453 C 4.9600904,3.9420904 4.9218231,3.5326512 4.9068658,3.3181275 4.8987072,3.2000909 4.8726776,2.9587761 5.0678996,2.8389923 5.288374,2.7034832 5.7403953,2.6941646 5.875011,2.6941646 c 0.2939012,0 0.5810037,0.053776 0.7871036,0.1238607 0.1297595,0.044264 0.090327,0.3304247 0.075564,0.4482672 z"
         id="path5"
         style="fill:#292f33;stroke-width:0.491789"
         inkscape:label="Glasses"
         transform="matrix(7.0302433,0,0,7.0199923,-10.268503,-13.975195)" /></g></g></svg>
