<?xml version="1.0" encoding="UTF-8" standalone="no"?>
<!-- Created with Inkscape (http://www.inkscape.org/) -->

<svg
   width="32"
   height="32"
   viewBox="0 0 8.4666666 8.4666666"
   version="1.1"
   id="svg1"
   inkscape:version="1.3.2 (091e20ef0f, 2023-11-25, custom)"
   sodipodi:docname="pleading.svg"
   inkscape:export-filename="../png/pleading.png"
   inkscape:export-xdpi="384"
   inkscape:export-ydpi="384"
   xml:space="preserve"
   xmlns:inkscape="http://www.inkscape.org/namespaces/inkscape"
   xmlns:sodipodi="http://sodipodi.sourceforge.net/DTD/sodipodi-0.dtd"
   xmlns="http://www.w3.org/2000/svg"
   xmlns:svg="http://www.w3.org/2000/svg"><sodipodi:namedview
     id="namedview1"
     pagecolor="#ffffff"
     bordercolor="#000000"
     borderopacity="0.25"
     inkscape:showpageshadow="2"
     inkscape:pageopacity="0.0"
     inkscape:pagecheckerboard="0"
     inkscape:deskcolor="#d1d1d1"
     inkscape:document-units="mm"
     showguides="true"
     inkscape:zoom="22.627417"
     inkscape:cx="14.937631"
     inkscape:cy="16.152971"
     inkscape:window-width="1920"
     inkscape:window-height="1054"
     inkscape:window-x="0"
     inkscape:window-y="26"
     inkscape:window-maximized="1"
     inkscape:current-layer="g14"><sodipodi:guide
       position="38.809823,206.59584"
       orientation="0,-1"
       id="guide2"
       inkscape:locked="false" /><sodipodi:guide
       position="7.6299338,3.748757"
       orientation="1,0"
       id="guide7"
       inkscape:locked="false" /><sodipodi:guide
       position="4.2344021,7.7278364"
       orientation="0,-1"
       id="guide8"
       inkscape:locked="false" /><sodipodi:guide
       position="0.83509114,3.8529948"
       orientation="1,0"
       id="guide9"
       inkscape:locked="false" /><sodipodi:guide
       position="4.2344021,0.73883016"
       orientation="0,-1"
       id="guide10"
       inkscape:locked="false" /><sodipodi:guide
       position="4.2333987,4.2333333"
       orientation="0,-1"
       id="guide1"
       inkscape:locked="false" /><sodipodi:guide
       position="4.2333987,4.2333333"
       orientation="1,0"
       id="guide3"
       inkscape:locked="false" /></sodipodi:namedview><defs
     id="defs1"><inkscape:path-effect
       effect="mirror_symmetry"
       start_point="4.2333333,0.45098027"
       end_point="4.2333333,8.6777958"
       center_point="4.2333333,4.564388"
       id="path-effect9"
       is_visible="true"
       lpeversion="1.2"
       lpesatellites="#g10"
       mode="vertical"
       discard_orig_path="false"
       fuse_paths="false"
       oposite_fuse="false"
       split_items="true"
       split_open="false"
       link_styles="false" /><inkscape:path-effect
       effect="mirror_symmetry"
       start_point="4.2333333,0"
       end_point="4.2333333,8.4666667"
       center_point="4.2333333,4.2333333"
       id="path-effect1"
       is_visible="true"
       lpeversion="1.2"
       lpesatellites=""
       mode="vertical"
       discard_orig_path="false"
       fuse_paths="false"
       oposite_fuse="false"
       split_items="true"
       split_open="false"
       link_styles="false" /><inkscape:path-effect
       effect="mirror_symmetry"
       start_point="4.2109789,0.00442628"
       end_point="4.2109789,8.4710929"
       center_point="4.2109789,4.2377596"
       id="path-effect20"
       is_visible="true"
       lpeversion="1.2"
       lpesatellites="#path20"
       mode="vertical"
       discard_orig_path="false"
       fuse_paths="false"
       oposite_fuse="false"
       split_items="true"
       split_open="false"
       link_styles="false" /><inkscape:path-effect
       effect="mirror_symmetry"
       start_point="4.2333986,4.9662396"
       end_point="4.2333986,6.8898319"
       center_point="4.2333986,5.9280357"
       id="path-effect19"
       is_visible="true"
       lpeversion="1.2"
       lpesatellites=""
       mode="free"
       discard_orig_path="false"
       fuse_paths="true"
       oposite_fuse="false"
       split_items="false"
       split_open="false"
       link_styles="false" /><inkscape:path-effect
       effect="mirror_symmetry"
       start_point="4.2333969,5.2131481"
       end_point="4.2333969,6.0796415"
       center_point="4.2333969,5.6463948"
       id="path-effect18"
       is_visible="true"
       lpeversion="1.2"
       lpesatellites=""
       mode="free"
       discard_orig_path="false"
       fuse_paths="true"
       oposite_fuse="false"
       split_items="false"
       split_open="false"
       link_styles="false" /><inkscape:path-effect
       effect="mirror_symmetry"
       start_point="4.2333969,4.8417469"
       end_point="4.2333969,6.9755248"
       center_point="4.2333969,5.9086358"
       id="path-effect15"
       is_visible="true"
       lpeversion="1.2"
       lpesatellites=""
       mode="free"
       discard_orig_path="false"
       fuse_paths="true"
       oposite_fuse="false"
       split_items="false"
       split_open="false"
       link_styles="false" /><inkscape:path-effect
       effect="mirror_symmetry"
       start_point="4.2321553,6.3542803"
       end_point="4.2321553,6.3542803"
       center_point="4.2321553,6.3542803"
       id="path-effect8"
       is_visible="true"
       lpeversion="1.2"
       lpesatellites=""
       mode="vertical"
       discard_orig_path="false"
       fuse_paths="false"
       oposite_fuse="false"
       split_items="false"
       split_open="false"
       link_styles="false" /><inkscape:path-effect
       effect="mirror_symmetry"
       start_point="3.7333489,0.51466146"
       end_point="3.7333489,8.2305048"
       center_point="3.7333489,4.3725831"
       id="path-effect7"
       is_visible="true"
       lpeversion="1.2"
       lpesatellites="#g7"
       mode="vertical"
       discard_orig_path="false"
       fuse_paths="false"
       oposite_fuse="false"
       split_items="true"
       split_open="false"
       link_styles="false" /><inkscape:path-effect
       effect="mirror_symmetry"
       start_point="4.2333333,0"
       end_point="4.2333333,8.4666667"
       center_point="4.2333333,4.2333333"
       id="path-effect5"
       is_visible="true"
       lpeversion="1.2"
       lpesatellites=""
       mode="vertical"
       discard_orig_path="false"
       fuse_paths="false"
       oposite_fuse="false"
       split_items="false"
       split_open="false"
       link_styles="false" /><inkscape:path-effect
       effect="powerstroke"
       id="path-effect11"
       is_visible="true"
       lpeversion="1.3"
       scale_width="1"
       interpolator_type="CentripetalCatmullRom"
       interpolator_beta="0.2"
       start_linecap_type="zerowidth"
       end_linecap_type="zerowidth"
       offset_points="0.22690433,0.107688 | 0.53457588,0.21098948 | 0.88867914,0.24449304 | 1.2,0.25 | 1.5,0.25 | 1.8,0.25"
       linejoin_type="round"
       miter_limit="4"
       not_jump="false"
       sort_points="true"
       message="&lt;b&gt;Ctrl + click&lt;/b&gt; on existing node and move it" /><inkscape:path-effect
       effect="mirror_symmetry"
       start_point="4.2333333,-0.50677083"
       end_point="4.2333333,7.9598958"
       center_point="4.2333333,3.7265625"
       id="path-effect6"
       is_visible="true"
       lpeversion="1.2"
       lpesatellites=""
       mode="vertical"
       discard_orig_path="false"
       fuse_paths="true"
       oposite_fuse="false"
       split_items="false"
       split_open="false"
       link_styles="false" /><inkscape:path-effect
       effect="mirror_symmetry"
       start_point="6.1496393,0"
       end_point="6.1496393,6.3620848"
       center_point="6.1496393,3.1810424"
       id="path-effect4"
       is_visible="true"
       lpeversion="1.2"
       lpesatellites=""
       mode="free"
       discard_orig_path="false"
       fuse_paths="false"
       oposite_fuse="false"
       split_items="false"
       split_open="false"
       link_styles="false" /></defs><g
     inkscape:label="Layer 1"
     inkscape:groupmode="layer"
     id="layer1"><g
       id="g7"
       transform="matrix(1.0291548,0,0,1.0291548,-0.123422,-0.46412851)"
       style="stroke-width:0.971671"
       inkscape:label="Base"><path
         id="path1"
         style="fill:#5080e2;fill-opacity:1;stroke-width:0.0257087;stroke-linecap:round;stroke-linejoin:round"
         d="m 4.2324219,0.66210937 c -1.9384355,0 -3.39648443,1.58876093 -3.3964844,3.39453123 3e-8,1.8754174 1.521067,3.3964844 3.3964844,3.3964844 h 0.00195 c 1.8754174,0 3.3964844,-1.521067 3.3964844,-3.3964844 0,-1.8754174 -1.521067,-3.39453124 -3.3964844,-3.39453123 z"
         transform="translate(0,0.50677083)"
         sodipodi:nodetypes="sssssss"
         inkscape:label="Head" /><g
         id="g5"
         inkscape:path-effect="#path-effect9"
         inkscape:label="Left Ear"><path
           style="fill:#e1aeeb;fill-opacity:1;stroke-width:0.0257087;stroke-linecap:round;stroke-linejoin:round"
           d="m 0.28331245,1.654279 c -0.15793221,0.098006 -0.0533003,0.6468411 -0.006098,0.9333044 0.0472025,0.2864633 0.16160882,1.083244 0.61032776,1.4073927 0,0 0.0713058,-0.3752606 0.22192809,-0.6239782 C 1.2600926,3.1222803 1.4830607,2.9278158 1.4830607,2.9278158 1.4182309,2.5678135 0.64085576,1.7104817 0.28331245,1.654279 Z"
           id="path2"
           inkscape:original-d="m 0.28331245,1.654279 c -0.15793221,0.098006 -0.0533003,0.6468411 -0.006098,0.9333044 0.0472025,0.2864633 0.16160882,1.083244 0.61032776,1.4073927 0,0 0.0713058,-0.3752606 0.22192809,-0.6239782 C 1.2600926,3.1222803 1.4830607,2.9278158 1.4830607,2.9278158 1.4182309,2.5678135 0.64085576,1.7104817 0.28331245,1.654279 Z"
           sodipodi:nodetypes="czczcc"
           inkscape:label="Inner" /><path
           style="fill:#3b71de;fill-opacity:1;stroke-width:0.0257087;stroke-linecap:round;stroke-linejoin:round"
           d="M 1.4738335,1.9123284 C 1.1767039,1.739068 0.81057197,1.5982752 0.56789986,1.5887822 0.38499814,1.5816274 0.28331245,1.654279 0.28331245,1.654279 0.56272743,1.747063 1.0089299,2.047381 1.4830613,2.9278157 1.6748888,2.7766473 2.00459,2.6003928 2.2059875,2.5574691 2.0041541,2.2936083 1.7150993,2.0530139 1.4738335,1.9123284 Z"
           id="path4"
           sodipodi:nodetypes="sscccs"
           inkscape:original-d="M 1.4738335,1.9123284 C 1.1767039,1.739068 0.81057197,1.5982752 0.56789986,1.5887822 0.38499814,1.5816274 0.28331245,1.654279 0.28331245,1.654279 0.56272743,1.747063 1.0089299,2.047381 1.4830613,2.9278157 1.6748888,2.7766473 2.00459,2.6003928 2.2059875,2.5574691 2.0041541,2.2936083 1.7150993,2.0530139 1.4738335,1.9123284 Z"
           inkscape:label="Outer" /></g><g
         id="g10"
         transform="matrix(-1,0,0,1,8.4666667,0)"
         inkscape:label="Right Ear"><path
           id="path9"
           d="m 0.28331245,1.654279 c -0.15793221,0.098006 -0.0533003,0.6468411 -0.006098,0.9333044 0.0472025,0.2864633 0.16160882,1.083244 0.61032776,1.4073927 0,0 0.0713058,-0.3752606 0.22192809,-0.6239782 C 1.2600926,3.1222803 1.4830607,2.9278158 1.4830607,2.9278158 1.4182309,2.5678135 0.64085576,1.7104817 0.28331245,1.654279 Z"
           style="fill:#e1aeeb;fill-opacity:1;stroke-width:0.0257087;stroke-linecap:round;stroke-linejoin:round"
           inkscape:label="Inner" /><path
           id="path10"
           d="M 1.4738335,1.9123284 C 1.1767039,1.739068 0.81057197,1.5982752 0.56789986,1.5887822 0.38499814,1.5816274 0.28331245,1.654279 0.28331245,1.654279 0.56272743,1.747063 1.0089299,2.047381 1.4830613,2.9278157 1.6748888,2.7766473 2.00459,2.6003928 2.2059875,2.5574691 2.0041541,2.2936083 1.7150993,2.0530139 1.4738335,1.9123284 Z"
           style="stroke-width:0.0257087;fill:#3b71de;fill-opacity:1;stroke-linecap:round;stroke-linejoin:round"
           inkscape:label="Outer" /></g></g><g
       id="g11"
       transform="matrix(0.14224259,0,0,0.1424503,1.4606184,1.9907707)"
       inkscape:label="Face"
       style="stroke-width:1.85873"><path
         id="path5"
         style="stroke-width:0.485835;fill:#0f2757;stroke-linecap:round;stroke-linejoin:round;fill-opacity:1"
         inkscape:label="Brows"
         d="M 6.18402,2.877175 C 6.0118171,2.8270591 5.9150766,2.9100417 5.5049951,2.543462 5.3981622,2.447962 5.2749487,2.486991 5.2184895,2.551042 5.1735165,2.602059 5.1507835,2.7078909 5.1844575,2.76503 c 0.068801,0.1167405 0.5570479,0.469092 0.902726,0.4783518 0.1099324,0.00294 0.1957889,-0.047674 0.21947,-0.1445089 C 6.3279666,3.0117206 6.2934263,2.9090154 6.18402,2.877175 Z m -3.9013733,0 C 2.4548497,2.827059 2.5515901,2.910042 2.9616716,2.543462 3.0685045,2.447962 3.1917181,2.486991 3.2481772,2.551042 3.2931502,2.602059 3.3158832,2.7078909 3.2822092,2.76503 3.2134079,2.8817695 2.7251611,3.234121 2.3794831,3.2433808 2.2695506,3.246325 2.1836942,3.1957067 2.1600131,3.0988719 2.1387004,3.0117208 2.1732404,2.9090154 2.2826467,2.877175 Z"
         transform="matrix(7.2352085,0,0,7.2246587,-11.136189,-17.233373)" /><path
         style="stroke-width:0.485835;fill:#0f2757;stroke-linecap:round;stroke-linejoin:round;fill-opacity:1"
         d="m 4.1527403,6.0779429 c -0.1467789,4.208e-4 -0.4546283,0.013892 -0.5921121,0.1138677 -0.068197,0.049591 -0.098791,0.1364802 -0.077809,0.2087575 0.031893,0.1098674 0.1248685,0.1632604 0.2372244,0.1347434 0.083813,-0.021272 0.1379234,-0.061648 0.5124048,-0.085401 0.3744814,0.023752 0.4304902,0.064128 0.5143024,0.085401 0.1123558,0.028517 0.2053313,-0.024876 0.2372244,-0.1347434 0.020981,-0.072277 -0.00961,-0.1591662 -0.07781,-0.2087575 C 4.7228535,6.0585099 4.2350631,6.0797249 4.232448,6.0798406 4.2317681,6.0798118 4.201667,6.0778006 4.152741,6.0779506 Z"
         id="path6"
         sodipodi:nodetypes="ssccss"
         inkscape:label="Mouth"
         transform="matrix(7.2352085,0,0,7.2246587,-11.136189,-17.233373)" /><g
         id="g14"
         inkscape:label="Left Eye"
         style="stroke-width:1.85873"><path
           id="path11"
           d="M 18.154468,15.07816 A 7.5364203,7.5265861 0 0 1 10.618048,22.604746 7.5364203,7.5265861 0 0 1 3.0816274,15.07816 7.5364203,7.5265861 0 0 1 10.618048,7.5515742 7.5364203,7.5265861 0 0 1 18.154468,15.07816 Z"
           style="display:inline;fill:#ffffff;fill-opacity:1;stroke-width:3.51256;stroke-linecap:round;stroke-linejoin:round" /><path
           id="path12-6-2"
           d="M 17.466865,14.38243 A 6.8333964,6.8234318 0 0 1 10.633469,21.205862 6.8333964,6.8234318 0 0 1 3.8000731,14.38243 6.8333964,6.8234318 0 0 1 10.633469,7.5589965 6.8333964,6.8234318 0 0 1 17.466865,14.38243 Z"
           style="stroke-width:3.51255;display:inline;fill:#292f33;fill-opacity:1;stroke-linecap:round;stroke-linejoin:round" /><path
           id="path13-0-0"
           d="m 10.694958,13.844036 c -1.3562739,1.536012 -3.4751879,2.038136 -4.6901309,0.981225 -1.344219,-1.169371 -0.94809,-3.208301 0.363856,-4.622077 1.278966,-1.3782395 3.351358,-1.6518135 4.4274899,-0.7905985 1.086352,0.8693945 1.25506,2.8954385 -0.101215,4.4314505 z"
           style="stroke-width:3.51256;display:inline;fill:#ffffff;fill-opacity:1;stroke-linecap:round;stroke-linejoin:round"
           sodipodi:nodetypes="sssss" /><path
           id="path14-6-2"
           d="m 14.868323,18.034525 c -0.651722,0.626809 -1.501433,0.707469 -1.966386,0.205051 -0.446761,-0.48276 -0.353392,-1.33673 0.283968,-1.978095 0.594501,-0.598237 1.442089,-0.734079 1.944805,-0.212905 0.502715,0.521174 0.389335,1.35914 -0.262387,1.985949 z"
           style="stroke-width:3.51255;display:inline;fill:#ffffff;fill-opacity:1;stroke-linecap:round;stroke-linejoin:round"
           sodipodi:nodetypes="sssss" /></g><g
         id="g18"
         transform="matrix(-1,0,0,0.99999997,38.985721,1.4039984e-7)"
         inkscape:label="Right Eye"
         style="stroke-width:1.85873"><path
           id="path15"
           d="M 18.154468,15.07816 A 7.5364203,7.5265861 0 0 1 10.618048,22.604746 7.5364203,7.5265861 0 0 1 3.0816274,15.07816 7.5364203,7.5265861 0 0 1 10.618048,7.5515742 7.5364203,7.5265861 0 0 1 18.154468,15.07816 Z"
           style="display:inline;fill:#ffffff;fill-opacity:1;stroke-width:3.51256;stroke-linecap:round;stroke-linejoin:round" /><path
           id="path12-6"
           d="m 3.800073,14.382429 a 6.8333964,6.823432 0 0 0 6.833396,6.823432 6.8333964,6.823432 0 0 0 6.833397,-6.823432 6.8333964,6.823432 0 0 0 -6.833397,-6.8234319 6.8333964,6.823432 0 0 0 -6.833396,6.8234319 z"
           style="display:inline;fill:#292f33;fill-opacity:1;stroke-width:3.51255;stroke-linecap:round;stroke-linejoin:round" /><path
           id="path13-0"
           d="m 10.57198,13.844035 c 1.356275,1.536012 3.475189,2.038136 4.690132,0.981225 1.344219,-1.169371 0.94809,-3.208301 -0.363856,-4.622077 C 13.61929,8.8249453 11.546898,8.5513715 10.470765,9.4125862 9.3844129,10.281979 9.2157052,12.308023 10.57198,13.844035 Z"
           style="display:inline;fill:#ffffff;fill-opacity:1;stroke-width:3.51256;stroke-linecap:round;stroke-linejoin:round"
           sodipodi:nodetypes="sssss" /><path
           id="path14-6"
           d="m 6.3986153,18.034524 c 0.6517216,0.626809 1.5014332,0.707469 1.9663855,0.205051 0.4467608,-0.48276 0.3533924,-1.33673 -0.2839677,-1.978095 -0.5945013,-0.598237 -1.4420889,-0.734079 -1.944805,-0.212905 -0.5027154,0.521174 -0.3893347,1.35914 0.2623872,1.985949 z"
           style="display:inline;fill:#ffffff;fill-opacity:1;stroke-width:3.51255;stroke-linecap:round;stroke-linejoin:round"
           sodipodi:nodetypes="sssss" /></g></g></g></svg>
