<?xml version="1.0" encoding="UTF-8" standalone="no"?>
<!-- Created with Inkscape (http://www.inkscape.org/) -->

<svg
   width="32"
   height="32"
   viewBox="0 0 8.4666666 8.4666666"
   version="1.1"
   id="svg1"
   inkscape:version="1.3.2 (091e20ef0f, 2023-11-25, custom)"
   sodipodi:docname="1f634.svg"
   inkscape:export-filename="guy.png"
   inkscape:export-xdpi="384"
   inkscape:export-ydpi="384"
   xml:space="preserve"
   xmlns:inkscape="http://www.inkscape.org/namespaces/inkscape"
   xmlns:sodipodi="http://sodipodi.sourceforge.net/DTD/sodipodi-0.dtd"
   xmlns="http://www.w3.org/2000/svg"
   xmlns:svg="http://www.w3.org/2000/svg"><sodipodi:namedview
     id="namedview1"
     pagecolor="#ffffff"
     bordercolor="#000000"
     borderopacity="0.25"
     inkscape:showpageshadow="2"
     inkscape:pageopacity="0.0"
     inkscape:pagecheckerboard="0"
     inkscape:deskcolor="#d1d1d1"
     inkscape:document-units="mm"
     showguides="true"
     inkscape:zoom="16"
     inkscape:cx="14.5"
     inkscape:cy="12.59375"
     inkscape:window-width="1920"
     inkscape:window-height="1054"
     inkscape:window-x="0"
     inkscape:window-y="26"
     inkscape:window-maximized="1"
     inkscape:current-layer="g11"><sodipodi:guide
       position="38.809823,206.59584"
       orientation="0,-1"
       id="guide2"
       inkscape:locked="false" /><sodipodi:guide
       position="7.6299338,3.748757"
       orientation="1,0"
       id="guide7"
       inkscape:locked="false" /><sodipodi:guide
       position="4.2344021,7.7278364"
       orientation="0,-1"
       id="guide8"
       inkscape:locked="false" /><sodipodi:guide
       position="0.83509114,3.8529948"
       orientation="1,0"
       id="guide9"
       inkscape:locked="false" /><sodipodi:guide
       position="4.2344021,0.73883016"
       orientation="0,-1"
       id="guide10"
       inkscape:locked="false" /><sodipodi:guide
       position="4.2333987,4.2333333"
       orientation="0,-1"
       id="guide1"
       inkscape:locked="false" /><sodipodi:guide
       position="4.2333987,4.2333333"
       orientation="1,0"
       id="guide3"
       inkscape:locked="false" /></sodipodi:namedview><defs
     id="defs1"><inkscape:path-effect
       effect="mirror_symmetry"
       start_point="4.2333333,0.45098027"
       end_point="4.2333333,8.6777958"
       center_point="4.2333333,4.564388"
       id="path-effect9"
       is_visible="true"
       lpeversion="1.2"
       lpesatellites="#g10"
       mode="vertical"
       discard_orig_path="false"
       fuse_paths="false"
       oposite_fuse="false"
       split_items="true"
       split_open="false"
       link_styles="false" /><inkscape:path-effect
       effect="mirror_symmetry"
       start_point="4.2333333,0"
       end_point="4.2333333,8.4666667"
       center_point="4.2333333,4.2333333"
       id="path-effect1"
       is_visible="true"
       lpeversion="1.2"
       lpesatellites=""
       mode="vertical"
       discard_orig_path="false"
       fuse_paths="false"
       oposite_fuse="false"
       split_items="true"
       split_open="false"
       link_styles="false" /><inkscape:path-effect
       effect="mirror_symmetry"
       start_point="4.2109789,0.00442628"
       end_point="4.2109789,8.4710929"
       center_point="4.2109789,4.2377596"
       id="path-effect20"
       is_visible="true"
       lpeversion="1.2"
       lpesatellites="#path20"
       mode="vertical"
       discard_orig_path="false"
       fuse_paths="false"
       oposite_fuse="false"
       split_items="true"
       split_open="false"
       link_styles="false" /><inkscape:path-effect
       effect="mirror_symmetry"
       start_point="4.2333986,4.9662396"
       end_point="4.2333986,6.8898319"
       center_point="4.2333986,5.9280357"
       id="path-effect19"
       is_visible="true"
       lpeversion="1.2"
       lpesatellites=""
       mode="free"
       discard_orig_path="false"
       fuse_paths="true"
       oposite_fuse="false"
       split_items="false"
       split_open="false"
       link_styles="false" /><inkscape:path-effect
       effect="mirror_symmetry"
       start_point="4.2333969,5.2131481"
       end_point="4.2333969,6.0796415"
       center_point="4.2333969,5.6463948"
       id="path-effect18"
       is_visible="true"
       lpeversion="1.2"
       lpesatellites=""
       mode="free"
       discard_orig_path="false"
       fuse_paths="true"
       oposite_fuse="false"
       split_items="false"
       split_open="false"
       link_styles="false" /><inkscape:path-effect
       effect="mirror_symmetry"
       start_point="4.2333969,4.8417469"
       end_point="4.2333969,6.9755248"
       center_point="4.2333969,5.9086358"
       id="path-effect15"
       is_visible="true"
       lpeversion="1.2"
       lpesatellites=""
       mode="free"
       discard_orig_path="false"
       fuse_paths="true"
       oposite_fuse="false"
       split_items="false"
       split_open="false"
       link_styles="false" /><inkscape:path-effect
       effect="mirror_symmetry"
       start_point="4.2321553,6.3542803"
       end_point="4.2321553,6.3542803"
       center_point="4.2321553,6.3542803"
       id="path-effect8"
       is_visible="true"
       lpeversion="1.2"
       lpesatellites=""
       mode="vertical"
       discard_orig_path="false"
       fuse_paths="false"
       oposite_fuse="false"
       split_items="false"
       split_open="false"
       link_styles="false" /><inkscape:path-effect
       effect="mirror_symmetry"
       start_point="3.7333489,0.51466146"
       end_point="3.7333489,8.2305048"
       center_point="3.7333489,4.3725831"
       id="path-effect7"
       is_visible="true"
       lpeversion="1.2"
       lpesatellites="#g7"
       mode="vertical"
       discard_orig_path="false"
       fuse_paths="false"
       oposite_fuse="false"
       split_items="true"
       split_open="false"
       link_styles="false" /><inkscape:path-effect
       effect="mirror_symmetry"
       start_point="4.2333333,0"
       end_point="4.2333333,8.4666667"
       center_point="4.2333333,4.2333333"
       id="path-effect5"
       is_visible="true"
       lpeversion="1.2"
       lpesatellites=""
       mode="vertical"
       discard_orig_path="false"
       fuse_paths="false"
       oposite_fuse="false"
       split_items="false"
       split_open="false"
       link_styles="false" /><inkscape:path-effect
       effect="powerstroke"
       id="path-effect11"
       is_visible="true"
       lpeversion="1.3"
       scale_width="1"
       interpolator_type="CentripetalCatmullRom"
       interpolator_beta="0.2"
       start_linecap_type="zerowidth"
       end_linecap_type="zerowidth"
       offset_points="0.22690433,0.107688 | 0.53457588,0.21098948 | 0.88867914,0.24449304 | 1.2,0.25 | 1.5,0.25 | 1.8,0.25"
       linejoin_type="round"
       miter_limit="4"
       not_jump="false"
       sort_points="true"
       message="&lt;b&gt;Ctrl + click&lt;/b&gt; on existing node and move it" /><inkscape:path-effect
       effect="mirror_symmetry"
       start_point="4.2333333,-0.50677083"
       end_point="4.2333333,7.9598958"
       center_point="4.2333333,3.7265625"
       id="path-effect6"
       is_visible="true"
       lpeversion="1.2"
       lpesatellites=""
       mode="vertical"
       discard_orig_path="false"
       fuse_paths="true"
       oposite_fuse="false"
       split_items="false"
       split_open="false"
       link_styles="false" /><inkscape:path-effect
       effect="mirror_symmetry"
       start_point="6.1496393,0"
       end_point="6.1496393,6.3620848"
       center_point="6.1496393,3.1810424"
       id="path-effect4"
       is_visible="true"
       lpeversion="1.2"
       lpesatellites=""
       mode="free"
       discard_orig_path="false"
       fuse_paths="false"
       oposite_fuse="false"
       split_items="false"
       split_open="false"
       link_styles="false" /><inkscape:path-effect
       effect="mirror_symmetry"
       start_point="4.2323584,0.45098022"
       end_point="4.2323584,8.6777958"
       center_point="4.2323584,4.564388"
       id="path-effect9-2"
       is_visible="true"
       lpeversion="1.2"
       lpesatellites="#g10-7"
       mode="vertical"
       discard_orig_path="false"
       fuse_paths="false"
       oposite_fuse="false"
       split_items="true"
       split_open="false"
       link_styles="false" /><inkscape:path-effect
       effect="mirror_symmetry"
       start_point="4.2333333,0"
       end_point="4.2333333,8.4666667"
       center_point="4.2333333,4.2333333"
       id="path-effect1-7"
       is_visible="true"
       lpeversion="1.2"
       lpesatellites=""
       mode="vertical"
       discard_orig_path="false"
       fuse_paths="false"
       oposite_fuse="false"
       split_items="true"
       split_open="false"
       link_styles="false" /><inkscape:path-effect
       effect="mirror_symmetry"
       start_point="4.2109789,0.00442628"
       end_point="4.2109789,8.4710929"
       center_point="4.2109789,4.2377596"
       id="path-effect20-0"
       is_visible="true"
       lpeversion="1.2"
       lpesatellites=""
       mode="vertical"
       discard_orig_path="false"
       fuse_paths="false"
       oposite_fuse="false"
       split_items="true"
       split_open="false"
       link_styles="false" /><inkscape:path-effect
       effect="mirror_symmetry"
       start_point="4.2333986,4.9662396"
       end_point="4.2333986,6.8898319"
       center_point="4.2333986,5.9280357"
       id="path-effect19-9"
       is_visible="true"
       lpeversion="1.2"
       lpesatellites=""
       mode="free"
       discard_orig_path="false"
       fuse_paths="true"
       oposite_fuse="false"
       split_items="false"
       split_open="false"
       link_styles="false" /><inkscape:path-effect
       effect="mirror_symmetry"
       start_point="4.2333969,5.2131481"
       end_point="4.2333969,6.0796415"
       center_point="4.2333969,5.6463948"
       id="path-effect18-3"
       is_visible="true"
       lpeversion="1.2"
       lpesatellites=""
       mode="free"
       discard_orig_path="false"
       fuse_paths="true"
       oposite_fuse="false"
       split_items="false"
       split_open="false"
       link_styles="false" /><inkscape:path-effect
       effect="mirror_symmetry"
       start_point="4.2333969,4.8417469"
       end_point="4.2333969,6.9755248"
       center_point="4.2333969,5.9086358"
       id="path-effect15-6"
       is_visible="true"
       lpeversion="1.2"
       lpesatellites=""
       mode="free"
       discard_orig_path="false"
       fuse_paths="true"
       oposite_fuse="false"
       split_items="false"
       split_open="false"
       link_styles="false" /><inkscape:path-effect
       effect="mirror_symmetry"
       start_point="4.2321553,6.3542803"
       end_point="4.2321553,6.3542803"
       center_point="4.2321553,6.3542803"
       id="path-effect8-0"
       is_visible="true"
       lpeversion="1.2"
       lpesatellites=""
       mode="vertical"
       discard_orig_path="false"
       fuse_paths="false"
       oposite_fuse="false"
       split_items="false"
       split_open="false"
       link_styles="false" /><inkscape:path-effect
       effect="mirror_symmetry"
       start_point="3.7333489,0.51466146"
       end_point="3.7333489,8.2305048"
       center_point="3.7333489,4.3725831"
       id="path-effect7-6"
       is_visible="true"
       lpeversion="1.2"
       lpesatellites=""
       mode="vertical"
       discard_orig_path="false"
       fuse_paths="false"
       oposite_fuse="false"
       split_items="true"
       split_open="false"
       link_styles="false" /><inkscape:path-effect
       effect="mirror_symmetry"
       start_point="4.2333333,0"
       end_point="4.2333333,8.4666667"
       center_point="4.2333333,4.2333333"
       id="path-effect5-2"
       is_visible="true"
       lpeversion="1.2"
       lpesatellites=""
       mode="vertical"
       discard_orig_path="false"
       fuse_paths="false"
       oposite_fuse="false"
       split_items="false"
       split_open="false"
       link_styles="false" /><inkscape:path-effect
       effect="powerstroke"
       id="path-effect11-6"
       is_visible="true"
       lpeversion="1.3"
       scale_width="1"
       interpolator_type="CentripetalCatmullRom"
       interpolator_beta="0.2"
       start_linecap_type="zerowidth"
       end_linecap_type="zerowidth"
       offset_points="0.22690433,0.107688 | 0.53457588,0.21098948 | 0.88867914,0.24449304 | 1.2,0.25 | 1.5,0.25 | 1.8,0.25"
       linejoin_type="round"
       miter_limit="4"
       not_jump="false"
       sort_points="true"
       message="&lt;b&gt;Ctrl + click&lt;/b&gt; on existing node and move it" /><inkscape:path-effect
       effect="mirror_symmetry"
       start_point="4.2333333,-0.50677083"
       end_point="4.2333333,7.9598958"
       center_point="4.2333333,3.7265625"
       id="path-effect6-1"
       is_visible="true"
       lpeversion="1.2"
       lpesatellites=""
       mode="vertical"
       discard_orig_path="false"
       fuse_paths="true"
       oposite_fuse="false"
       split_items="false"
       split_open="false"
       link_styles="false" /><inkscape:path-effect
       effect="mirror_symmetry"
       start_point="6.1496393,0"
       end_point="6.1496393,6.3620848"
       center_point="6.1496393,3.1810424"
       id="path-effect4-8"
       is_visible="true"
       lpeversion="1.2"
       lpesatellites=""
       mode="free"
       discard_orig_path="false"
       fuse_paths="false"
       oposite_fuse="false"
       split_items="false"
       split_open="false"
       link_styles="false" /></defs><g
     inkscape:label="Layer 1"
     inkscape:groupmode="layer"
     id="layer1"><g
       id="g7"
       transform="matrix(1.0291548,0,0,1.0291548,-0.123422,-0.46412851)"
       style="stroke-width:0.971671"
       inkscape:label="Base"><path
         id="path1"
         style="fill:#5080e2;fill-opacity:1;stroke-width:0.0257087;stroke-linecap:round;stroke-linejoin:round"
         d="m 4.2324219,0.66210937 c -1.9384355,0 -3.39648443,1.58876093 -3.3964844,3.39453123 3e-8,1.8754174 1.521067,3.3964844 3.3964844,3.3964844 h 0.00195 c 1.8754174,0 3.3964844,-1.521067 3.3964844,-3.3964844 0,-1.8754174 -1.521067,-3.39453124 -3.3964844,-3.39453123 z"
         transform="translate(0,0.50677083)"
         sodipodi:nodetypes="sssssss"
         inkscape:label="Head" /><g
         id="g5"
         inkscape:path-effect="#path-effect9"
         inkscape:label="Left Ear"><path
           style="fill:#e1aeeb;fill-opacity:1;stroke-width:0.0257087;stroke-linecap:round;stroke-linejoin:round"
           d="m 0.28331245,1.654279 c -0.15793221,0.098006 -0.0533003,0.6468411 -0.006098,0.9333044 0.0472025,0.2864633 0.16160882,1.083244 0.61032776,1.4073927 0,0 0.0713058,-0.3752606 0.22192809,-0.6239782 C 1.2600926,3.1222803 1.4830607,2.9278158 1.4830607,2.9278158 1.4182309,2.5678135 0.64085576,1.7104817 0.28331245,1.654279 Z"
           id="path2"
           inkscape:original-d="m 0.28331245,1.654279 c -0.15793221,0.098006 -0.0533003,0.6468411 -0.006098,0.9333044 0.0472025,0.2864633 0.16160882,1.083244 0.61032776,1.4073927 0,0 0.0713058,-0.3752606 0.22192809,-0.6239782 C 1.2600926,3.1222803 1.4830607,2.9278158 1.4830607,2.9278158 1.4182309,2.5678135 0.64085576,1.7104817 0.28331245,1.654279 Z"
           sodipodi:nodetypes="czczcc"
           inkscape:label="Inner" /><path
           style="fill:#3b71de;fill-opacity:1;stroke-width:0.0257087;stroke-linecap:round;stroke-linejoin:round"
           d="M 1.4738335,1.9123284 C 1.1767039,1.739068 0.81057197,1.5982752 0.56789986,1.5887822 0.38499814,1.5816274 0.28331245,1.654279 0.28331245,1.654279 0.56272743,1.747063 1.0089299,2.047381 1.4830613,2.9278157 1.6748888,2.7766473 2.00459,2.6003928 2.2059875,2.5574691 2.0041541,2.2936083 1.7150993,2.0530139 1.4738335,1.9123284 Z"
           id="path4"
           sodipodi:nodetypes="sscccs"
           inkscape:original-d="M 1.4738335,1.9123284 C 1.1767039,1.739068 0.81057197,1.5982752 0.56789986,1.5887822 0.38499814,1.5816274 0.28331245,1.654279 0.28331245,1.654279 0.56272743,1.747063 1.0089299,2.047381 1.4830613,2.9278157 1.6748888,2.7766473 2.00459,2.6003928 2.2059875,2.5574691 2.0041541,2.2936083 1.7150993,2.0530139 1.4738335,1.9123284 Z"
           inkscape:label="Outer" /></g><g
         id="g10"
         transform="matrix(-1,0,0,1,8.4666667,0)"
         inkscape:label="Right Ear"><path
           id="path9"
           d="m 0.28331245,1.654279 c -0.15793221,0.098006 -0.0533003,0.6468411 -0.006098,0.9333044 0.0472025,0.2864633 0.16160882,1.083244 0.61032776,1.4073927 0,0 0.0713058,-0.3752606 0.22192809,-0.6239782 C 1.2600926,3.1222803 1.4830607,2.9278158 1.4830607,2.9278158 1.4182309,2.5678135 0.64085576,1.7104817 0.28331245,1.654279 Z"
           style="fill:#e1aeeb;fill-opacity:1;stroke-width:0.0257087;stroke-linecap:round;stroke-linejoin:round"
           inkscape:label="Inner" /><path
           id="path10"
           d="M 1.4738335,1.9123284 C 1.1767039,1.739068 0.81057197,1.5982752 0.56789986,1.5887822 0.38499814,1.5816274 0.28331245,1.654279 0.28331245,1.654279 0.56272743,1.747063 1.0089299,2.047381 1.4830613,2.9278157 1.6748888,2.7766473 2.00459,2.6003928 2.2059875,2.5574691 2.0041541,2.2936083 1.7150993,2.0530139 1.4738335,1.9123284 Z"
           style="stroke-width:0.0257087;fill:#3b71de;fill-opacity:1;stroke-linecap:round;stroke-linejoin:round"
           inkscape:label="Outer" /></g></g><g
       id="g11"
       transform="matrix(0.14224259,0,0,0.1424503,1.4606184,1.9907707)"
       inkscape:label="Face"
       style="stroke-width:1.85873"><ellipse
         cx="19.498247"
         cy="26.645609"
         id="circle2"
         style="fill:#0f2757;fill-opacity:1;stroke-width:8.73359"
         rx="4.0975647"
         ry="4.0885644"
         inkscape:label="Mouth" /><path
         d="m 18.55854,13.851129 c -0.240391,-0.194888 -0.58322,-0.200339 -0.833172,-0.01908 -0.01639,0.01226 -1.720977,1.229294 -5.056395,1.229294 -3.3340524,0 -5.0400052,-1.217029 -5.0536637,-1.226569 -0.2499513,-0.186711 -0.5941468,-0.181259 -0.8345372,0.01227 -0.2431224,0.193525 -0.3250738,0.526062 -0.1994151,0.809536 0.081951,0.183985 2.0487825,4.493332 6.087616,4.493332 4.040199,0 6.005664,-4.309347 6.087616,-4.493332 0.125658,-0.282111 0.04371,-0.611922 -0.198049,-0.805448 z m 13.65855,0 c -0.240391,-0.194888 -0.581855,-0.201702 -0.833172,-0.01908 -0.01639,0.01226 -1.722343,1.229294 -5.056395,1.229294 -3.332686,0 -5.040005,-1.217029 -5.053664,-1.226569 -0.249951,-0.186711 -0.592781,-0.181259 -0.834537,0.01227 -0.243122,0.193525 -0.325074,0.526062 -0.199415,0.809536 0.08195,0.183985 2.048782,4.493332 6.087616,4.493332 4.040199,0 6.005664,-4.309347 6.087616,-4.493332 0.125658,-0.282111 0.04371,-0.611922 -0.198049,-0.805448 z"
         id="path2-3"
         style="fill:#0f2757;fill-opacity:1;stroke-width:8.73359"
         inkscape:label="Eyes" /><path
         d="m 41.939245,8.293408 c 0.0055,-0.059966 0.03141,-0.10494 0.03141,-0.1676314 0,-1.0275921 -0.748488,-1.6190713 -1.673172,-1.6190713 h -4.892492 l 5.844493,-8.1675883 c 0.281366,-0.3856876 0.385172,-0.6173729 0.385172,-1.105275 0,-1.0016981 -0.874148,-1.1570638 -1.208782,-1.1570638 H 33.11992 l -0.04371,-0.9376438 c 0,0 -1.92449,1.1325323 -2.05288,1.2102147 -0.12839,0.077683 -0.689757,0.5069822 -0.689757,1.3451379 0,1.0275921 0.745757,1.61770835 1.673173,1.61770835 h 4.301077 L 30.487917,7.4797836 c -0.12839,0.2057911 -0.333268,0.5901162 -0.333268,1.0016984 0,0.8476957 0.693854,1.2592775 1.517464,1.2592775 h 8.625374 c 0.352391,0 0.703416,-0.1035767 0.930148,-0.2398623 l 2.052879,-1.2102151 h -1.341269 z"
         id="path3"
         style="fill:#1e4db0;fill-opacity:1;stroke-width:8.73359"
         inkscape:label="Big Z Shadow" /><path
         d="M 38.307437,-1.8598596 H 34.00636 c -0.927416,0 -1.673173,-0.5901162 -1.673173,-1.6177088 0,-1.0275922 0.745757,-1.6190714 1.673173,-1.6190714 h 8.419131 c 0.334634,0 1.208779,0.1540028 1.208779,1.1557009 0,0.4879021 -0.103805,0.7195874 -0.38517,1.1052754 l -5.844493,8.1675883 h 4.892492 c 0.924686,0 1.673171,0.5901158 1.673171,1.6177084 0,1.0275926 -0.748485,1.6177084 -1.673171,1.6177084 h -8.625374 c -0.823611,0 -1.517465,-0.4115819 -1.517465,-1.2592775 0,-0.4115822 0.204878,-0.7959073 0.333269,-1.0016984 z"
         id="path4-5"
         style="fill:#c0f0a8;fill-opacity:1;stroke-width:8.73359"
         inkscape:label="Big Z" /><path
         d="m 28.903525,1.4055403 c 0.0041,-0.044974 0.02458,-0.079045 0.02458,-0.1253827 0,-0.76865017 -0.56,-1.21157767 -1.252489,-1.21157767 h -3.663221 l 4.374834,-6.11512943 c 0.213073,-0.2889251 0.289561,-0.4620075 0.289561,-0.82589 0,-0.7495701 -0.654244,-0.8654127 -0.905562,-0.8654127 h -5.468883 l -0.03278,-0.7018699 c 0,0 -1.440977,0.8476956 -1.536587,0.9062984 -0.09561,0.058602 -0.516294,0.3802362 -0.516294,1.0071496 0,0.7686501 0.558635,1.2115776 1.25249,1.2115776 h 3.21932 l -4.357078,6.11512943 c -0.09561,0.1540024 -0.249951,0.44156497 -0.249951,0.74956967 0,0.6350905 0.519025,0.9417327 1.136391,0.9417327 h 6.457762 c 0.263611,0 0.525855,-0.077683 0.696586,-0.1798966 l 1.536588,-0.9062984 z"
         id="path5"
         style="fill:#1e4db0;fill-opacity:1;stroke-width:8.73359"
         inkscape:label="Medium Z Shadow" /><path
         d="m 26.185474,-6.1951004 h -3.21932 c -0.693855,0 -1.252489,-0.4415649 -1.252489,-1.211578 0,-0.7686498 0.558634,-1.2115777 1.252489,-1.2115777 h 6.30342 c 0.251318,0 0.905562,0.1158426 0.905562,0.8654127 0,0.365245 -0.07785,0.5383275 -0.288195,0.8272526 l -4.374834,6.11512942 h 3.663223 c 0.689757,0 1.249758,0.44156492 1.249758,1.21157768 0,0.7700128 -0.560001,1.2115777 -1.252489,1.2115777 h -6.457763 c -0.617366,0 -1.136391,-0.3080052 -1.136391,-0.94173227 0,-0.30800518 0.154341,-0.59556771 0.249951,-0.7495701 z"
         id="path6"
         style="fill:#c0f0a8;fill-opacity:1;stroke-width:8.73359"
         inkscape:label="Medium Z" /><path
         d="m 19.144491,5.4191473 c 0.0041,-0.038159 0.02049,-0.06678 0.02049,-0.1076656 0,-0.6582586 -0.479415,-1.0371322 -1.072196,-1.0371322 h -3.134637 l 3.745174,-5.23336216 c 0.180293,-0.24667684 0.24722,-0.39522814 0.24722,-0.70732184 0,-0.6419045 -0.560001,-0.7413926 -0.77444,-0.7413926 h -4.680786 l -0.02868,-0.6010192 -1.315318,0.7754646 c -0.08195,0.050425 -0.442537,0.3243593 -0.442537,0.8626868 0,0.65825906 0.478049,1.03713264 1.072196,1.03713264 h 2.75493 L 11.80712,4.8998999 c -0.08195,0.1321968 -0.21444,0.3788736 -0.21444,0.6419045 0,0.543779 0.445269,0.8068099 0.972489,0.8068099 h 5.527615 c 0.225366,0 0.450732,-0.06678 0.595513,-0.1540027 l 1.315318,-0.7754643 z"
         id="path7"
         style="fill:#1e4db0;fill-opacity:1;stroke-width:8.73359"
         inkscape:label="Small Z Shadow" /><path
         d="m 16.817074,-1.0857583 h -2.754929 c -0.594147,0 -1.072196,-0.3788736 -1.072196,-1.0371322 0,-0.6582591 0.478049,-1.0371327 1.072196,-1.0371327 h 5.395127 c 0.214439,0 0.77444,0.099489 0.77444,0.7413931 0,0.3120937 -0.06556,0.460645 -0.24722,0.7073218 l -3.745174,5.2333617 h 3.134637 c 0.592781,0 1.072196,0.3788736 1.072196,1.0371327 0,0.6582586 -0.479415,1.0371322 -1.072196,1.0371322 H 13.84634 c -0.52722,0 -0.972489,-0.2630309 -0.972489,-0.8068099 0,-0.263031 0.131122,-0.5097074 0.214439,-0.6419046 z"
         id="path8"
         style="fill:#c0f0a8;fill-opacity:1;stroke-width:8.73359"
         inkscape:label="Small Z" /></g></g></svg>
