<?xml version="1.0" encoding="UTF-8" standalone="no"?>
<!-- Created with Inkscape (http://www.inkscape.org/) -->

<svg
   width="32"
   height="32"
   viewBox="0 0 8.4666666 8.4666666"
   version="1.1"
   id="svg1"
   inkscape:version="1.3.2 (091e20ef0f, 2023-11-25, custom)"
   sodipodi:docname="1f605.svg"
   inkscape:export-filename="guy.png"
   inkscape:export-xdpi="384"
   inkscape:export-ydpi="384"
   xml:space="preserve"
   xmlns:inkscape="http://www.inkscape.org/namespaces/inkscape"
   xmlns:sodipodi="http://sodipodi.sourceforge.net/DTD/sodipodi-0.dtd"
   xmlns="http://www.w3.org/2000/svg"
   xmlns:svg="http://www.w3.org/2000/svg"><sodipodi:namedview
     id="namedview1"
     pagecolor="#ffffff"
     bordercolor="#000000"
     borderopacity="0.25"
     inkscape:showpageshadow="2"
     inkscape:pageopacity="0.0"
     inkscape:pagecheckerboard="0"
     inkscape:deskcolor="#d1d1d1"
     inkscape:document-units="mm"
     showguides="true"
     inkscape:zoom="16"
     inkscape:cx="14.6875"
     inkscape:cy="9.5937499"
     inkscape:window-width="1920"
     inkscape:window-height="1054"
     inkscape:window-x="0"
     inkscape:window-y="26"
     inkscape:window-maximized="1"
     inkscape:current-layer="g11"><sodipodi:guide
       position="38.809823,206.59584"
       orientation="0,-1"
       id="guide2"
       inkscape:locked="false" /><sodipodi:guide
       position="7.6299338,3.748757"
       orientation="1,0"
       id="guide7"
       inkscape:locked="false" /><sodipodi:guide
       position="4.2344021,7.7278364"
       orientation="0,-1"
       id="guide8"
       inkscape:locked="false" /><sodipodi:guide
       position="0.83509114,3.8529948"
       orientation="1,0"
       id="guide9"
       inkscape:locked="false" /><sodipodi:guide
       position="4.2344021,0.73883016"
       orientation="0,-1"
       id="guide10"
       inkscape:locked="false" /><sodipodi:guide
       position="13.616033,4.20434"
       orientation="0,-1"
       id="guide1"
       inkscape:locked="false" /><sodipodi:guide
       position="4.2333987,4.2333333"
       orientation="1,0"
       id="guide3"
       inkscape:locked="false" /></sodipodi:namedview><defs
     id="defs1"><inkscape:path-effect
       effect="mirror_symmetry"
       start_point="4.2333333,0.45098027"
       end_point="4.2333333,8.6777958"
       center_point="4.2333333,4.564388"
       id="path-effect9"
       is_visible="true"
       lpeversion="1.2"
       lpesatellites="#g10"
       mode="vertical"
       discard_orig_path="false"
       fuse_paths="false"
       oposite_fuse="false"
       split_items="true"
       split_open="false"
       link_styles="false" /><inkscape:path-effect
       effect="mirror_symmetry"
       start_point="4.2333333,0"
       end_point="4.2333333,8.4666667"
       center_point="4.2333333,4.2333333"
       id="path-effect1"
       is_visible="true"
       lpeversion="1.2"
       lpesatellites=""
       mode="vertical"
       discard_orig_path="false"
       fuse_paths="false"
       oposite_fuse="false"
       split_items="true"
       split_open="false"
       link_styles="false" /><inkscape:path-effect
       effect="mirror_symmetry"
       start_point="4.2109789,0.00442628"
       end_point="4.2109789,8.4710929"
       center_point="4.2109789,4.2377596"
       id="path-effect20"
       is_visible="true"
       lpeversion="1.2"
       lpesatellites="#path20"
       mode="vertical"
       discard_orig_path="false"
       fuse_paths="false"
       oposite_fuse="false"
       split_items="true"
       split_open="false"
       link_styles="false" /><inkscape:path-effect
       effect="mirror_symmetry"
       start_point="4.2333986,4.9662396"
       end_point="4.2333986,6.8898319"
       center_point="4.2333986,5.9280357"
       id="path-effect19"
       is_visible="true"
       lpeversion="1.2"
       lpesatellites=""
       mode="free"
       discard_orig_path="false"
       fuse_paths="true"
       oposite_fuse="false"
       split_items="false"
       split_open="false"
       link_styles="false" /><inkscape:path-effect
       effect="mirror_symmetry"
       start_point="4.2333969,5.2131481"
       end_point="4.2333969,6.0796415"
       center_point="4.2333969,5.6463948"
       id="path-effect18"
       is_visible="true"
       lpeversion="1.2"
       lpesatellites=""
       mode="free"
       discard_orig_path="false"
       fuse_paths="true"
       oposite_fuse="false"
       split_items="false"
       split_open="false"
       link_styles="false" /><inkscape:path-effect
       effect="mirror_symmetry"
       start_point="4.2333969,4.8417469"
       end_point="4.2333969,6.9755248"
       center_point="4.2333969,5.9086358"
       id="path-effect15"
       is_visible="true"
       lpeversion="1.2"
       lpesatellites=""
       mode="free"
       discard_orig_path="false"
       fuse_paths="true"
       oposite_fuse="false"
       split_items="false"
       split_open="false"
       link_styles="false" /><inkscape:path-effect
       effect="mirror_symmetry"
       start_point="4.2321553,6.3542803"
       end_point="4.2321553,6.3542803"
       center_point="4.2321553,6.3542803"
       id="path-effect8"
       is_visible="true"
       lpeversion="1.2"
       lpesatellites=""
       mode="vertical"
       discard_orig_path="false"
       fuse_paths="false"
       oposite_fuse="false"
       split_items="false"
       split_open="false"
       link_styles="false" /><inkscape:path-effect
       effect="mirror_symmetry"
       start_point="3.7333489,0.51466146"
       end_point="3.7333489,8.2305048"
       center_point="3.7333489,4.3725831"
       id="path-effect7"
       is_visible="true"
       lpeversion="1.2"
       lpesatellites="#g7"
       mode="vertical"
       discard_orig_path="false"
       fuse_paths="false"
       oposite_fuse="false"
       split_items="true"
       split_open="false"
       link_styles="false" /><inkscape:path-effect
       effect="mirror_symmetry"
       start_point="4.2333333,0"
       end_point="4.2333333,8.4666667"
       center_point="4.2333333,4.2333333"
       id="path-effect5"
       is_visible="true"
       lpeversion="1.2"
       lpesatellites=""
       mode="vertical"
       discard_orig_path="false"
       fuse_paths="false"
       oposite_fuse="false"
       split_items="false"
       split_open="false"
       link_styles="false" /><inkscape:path-effect
       effect="powerstroke"
       id="path-effect11"
       is_visible="true"
       lpeversion="1.3"
       scale_width="1"
       interpolator_type="CentripetalCatmullRom"
       interpolator_beta="0.2"
       start_linecap_type="zerowidth"
       end_linecap_type="zerowidth"
       offset_points="0.22690433,0.107688 | 0.53457588,0.21098948 | 0.88867914,0.24449304 | 1.2,0.25 | 1.5,0.25 | 1.8,0.25"
       linejoin_type="round"
       miter_limit="4"
       not_jump="false"
       sort_points="true"
       message="&lt;b&gt;Ctrl + click&lt;/b&gt; on existing node and move it" /><inkscape:path-effect
       effect="mirror_symmetry"
       start_point="4.2333333,-0.50677083"
       end_point="4.2333333,7.9598958"
       center_point="4.2333333,3.7265625"
       id="path-effect6"
       is_visible="true"
       lpeversion="1.2"
       lpesatellites=""
       mode="vertical"
       discard_orig_path="false"
       fuse_paths="true"
       oposite_fuse="false"
       split_items="false"
       split_open="false"
       link_styles="false" /><inkscape:path-effect
       effect="mirror_symmetry"
       start_point="6.1496393,0"
       end_point="6.1496393,6.3620848"
       center_point="6.1496393,3.1810424"
       id="path-effect4"
       is_visible="true"
       lpeversion="1.2"
       lpesatellites=""
       mode="free"
       discard_orig_path="false"
       fuse_paths="false"
       oposite_fuse="false"
       split_items="false"
       split_open="false"
       link_styles="false" /></defs><g
     inkscape:label="Layer 1"
     inkscape:groupmode="layer"
     id="layer1"><g
       id="g7"
       transform="matrix(1.0291548,0,0,1.0291548,-0.123422,-0.46412851)"
       style="stroke-width:0.971671"
       inkscape:label="Base"><path
         id="path1"
         style="fill:#5080e2;fill-opacity:1;stroke-width:0.0257087;stroke-linecap:round;stroke-linejoin:round"
         d="m 4.2324219,0.66210937 c -1.9384355,0 -3.39648443,1.58876093 -3.3964844,3.39453123 3e-8,1.8754174 1.521067,3.3964844 3.3964844,3.3964844 h 0.00195 c 1.8754174,0 3.3964844,-1.521067 3.3964844,-3.3964844 0,-1.8754174 -1.521067,-3.39453124 -3.3964844,-3.39453123 z"
         transform="translate(0,0.50677083)"
         sodipodi:nodetypes="sssssss"
         inkscape:label="Head" /><g
         id="g5"
         inkscape:path-effect="#path-effect9"
         inkscape:label="Left Ear"><path
           style="fill:#e1aeeb;fill-opacity:1;stroke-width:0.0257087;stroke-linecap:round;stroke-linejoin:round"
           d="M 0.1719444,2.6465499 C 0.00826399,2.7486836 0.28892067,3.2254047 0.39985014,3.3949543 0.5107796,3.5645038 0.61582,3.7200717 0.88754221,3.9949761 c 0,0 0.0713058,-0.3752606 0.22192809,-0.6239782 C 1.2600926,3.1222803 1.4830607,2.9278158 1.4830607,2.9278158 1.4182309,2.5678135 0.2775358,2.5907973 0.1719444,2.6465499 Z"
           id="path2"
           inkscape:original-d="M 0.1719444,2.6465499 C 0.00826399,2.7486836 0.28892067,3.2254047 0.39985014,3.3949543 0.5107796,3.5645038 0.61582,3.7200717 0.88754221,3.9949761 c 0,0 0.0713058,-0.3752606 0.22192809,-0.6239782 C 1.2600926,3.1222803 1.4830607,2.9278158 1.4830607,2.9278158 1.4182309,2.5678135 0.2775358,2.5907973 0.1719444,2.6465499 Z"
           sodipodi:nodetypes="czczcc"
           inkscape:label="Inner" /><path
           style="fill:#3b71de;fill-opacity:1;stroke-width:0.0257087;stroke-linecap:round;stroke-linejoin:round"
           d="M 0.93135955,2.4265584 C 0.4582053,2.4780391 0.15770278,2.5852915 0.1282487,2.7073784 0.19113254,2.7962408 0.70567084,2.8970176 1.4830613,2.9278157 1.6748888,2.7766473 2.00459,2.6003928 2.2059875,2.5574691 1.6927837,2.3993494 1.2597513,2.3908283 0.93135955,2.4265584 Z"
           id="path4"
           sodipodi:nodetypes="scccs"
           inkscape:original-d="M 0.93135955,2.4265584 C 0.4582053,2.4780391 0.15770278,2.5852915 0.1282487,2.7073784 0.19113254,2.7962408 0.70567084,2.8970176 1.4830613,2.9278157 1.6748888,2.7766473 2.00459,2.6003928 2.2059875,2.5574691 1.6927837,2.3993494 1.2597513,2.3908283 0.93135955,2.4265584 Z"
           inkscape:label="Outer" /></g><g
         id="g10"
         transform="matrix(-1,0,0,1,8.4666667,0)"
         inkscape:label="Right Ear"><path
           id="path9"
           d="M 0.1719444,2.6465499 C 0.00826399,2.7486836 0.28892067,3.2254047 0.39985014,3.3949543 0.5107796,3.5645038 0.61582,3.7200717 0.88754221,3.9949761 c 0,0 0.0713058,-0.3752606 0.22192809,-0.6239782 C 1.2600926,3.1222803 1.4830607,2.9278158 1.4830607,2.9278158 1.4182309,2.5678135 0.2775358,2.5907973 0.1719444,2.6465499 Z"
           style="fill:#e1aeeb;fill-opacity:1;stroke-width:0.0257087;stroke-linecap:round;stroke-linejoin:round"
           inkscape:label="Inner" /><path
           id="path10"
           d="M 0.93135955,2.4265584 C 0.4582053,2.4780391 0.15770278,2.5852915 0.1282487,2.7073784 0.19113254,2.7962408 0.70567084,2.8970176 1.4830613,2.9278157 1.6748888,2.7766473 2.00459,2.6003928 2.2059875,2.5574691 1.6927837,2.3993494 1.2597513,2.3908283 0.93135955,2.4265584 Z"
           style="stroke-width:0.0257087;fill:#3b71de;fill-opacity:1;stroke-linecap:round;stroke-linejoin:round"
           inkscape:label="Outer" /></g></g><g
       id="g11"
       transform="matrix(0.14224259,0,0,0.1424503,1.4606184,1.9907707)"
       inkscape:label="Face"
       style="stroke-width:1.85873"><path
         d="m 33.780991,15.466112 c -0.08195,-0.183985 -2.047417,-4.493332 -6.087616,-4.493332 -4.038833,0 -6.005664,4.309347 -6.087615,4.493332 -0.125659,0.282111 -0.04371,0.611922 0.198049,0.805447 0.239025,0.193525 0.581854,0.20034 0.833172,0.01908 0.01639,-0.01227 1.723708,-1.229295 5.056394,-1.229295 3.313564,0 5.018151,1.200675 5.056395,1.227932 0.120195,0.08995 0.264976,0.134923 0.407025,0.134923 0.150244,0 0.301854,-0.05043 0.426147,-0.148551 0.241756,-0.193526 0.325073,-0.526062 0.198049,-0.809536 z m -16.390259,0 c -0.08195,-0.183985 -2.047417,-4.493332 -6.087615,-4.493332 -4.0388333,0 -6.0056644,4.309347 -6.0876157,4.493332 -0.1256586,0.282111 -0.043707,0.611922 0.1966831,0.805447 0.2403905,0.193525 0.5832201,0.20034 0.8331715,0.01908 0.017756,-0.01227 1.7237089,-1.229295 5.0577611,-1.229295 3.313564,0 5.018151,1.200675 5.056394,1.227932 0.120196,0.08995 0.264976,0.134923 0.407025,0.134923 0.150244,0 0.301854,-0.05043 0.426147,-0.148551 0.243122,-0.193526 0.323708,-0.526062 0.198049,-0.809536 z m 2.107514,5.728078 c -4.948492,0 -8.232007,-0.575124 -12.2926941,-1.362854 -0.9274155,-0.178534 -2.7317098,0 -2.7317098,2.725709 0,5.451419 6.2761029,12.265692 15.0244039,12.265692 8.746935,0 15.024404,-6.814273 15.024404,-12.265692 0,-2.725709 -1.804294,-2.905606 -2.73171,-2.725709 -4.060687,0.78773 -7.344202,1.362854 -12.292694,1.362854 z"
         id="path2-6"
         style="fill:#0f2757;fill-opacity:1;stroke-width:1.85841"
         inkscape:label="Mouth Eyes" /><path
         d="m 7.2055519,22.557045 c 0,0 4.0975651,1.362855 12.2926941,1.362855 8.195129,0 12.292694,-1.362855 12.292694,-1.362855 0,0 -2.73171,5.451419 -12.292694,5.451419 -9.5609843,0 -12.2926941,-5.451419 -12.2926941,-5.451419 z"
         id="path3"
         style="fill:#ffffff;stroke-width:1.85841"
         inkscape:label="Teeth" /><path
         d="m 42.717779,6.2027886 c 0,3.7642047 -3.056783,6.8142734 -6.829274,6.8142734 -3.772491,0 -6.829275,-3.0500687 -6.829275,-6.8142734 0,-3.7642047 5.46342,-13.628547 6.829275,-13.628547 1.365855,0 6.829274,9.8643423 6.829274,13.628547 z"
         id="path4-7"
         style="fill:#a2cff4;fill-opacity:1;stroke-width:1.85841"
         inkscape:label="Drop" /></g></g></svg>
