<?xml version="1.0" encoding="UTF-8" standalone="no"?>
<svg
   viewBox="0 0 36 36"
   version="1.1"
   id="svg2"
   sodipodi:docname="1f44e.svg"
   inkscape:version="1.3.2 (091e20ef0f, 2023-11-25, custom)"
   xmlns:inkscape="http://www.inkscape.org/namespaces/inkscape"
   xmlns:sodipodi="http://sodipodi.sourceforge.net/DTD/sodipodi-0.dtd"
   xmlns="http://www.w3.org/2000/svg"
   xmlns:svg="http://www.w3.org/2000/svg">
  <defs
     id="defs2" />
  <sodipodi:namedview
     id="namedview2"
     pagecolor="#ffffff"
     bordercolor="#000000"
     borderopacity="0.25"
     inkscape:showpageshadow="2"
     inkscape:pageopacity="0.0"
     inkscape:pagecheckerboard="0"
     inkscape:deskcolor="#d1d1d1"
     showguides="true"
     inkscape:zoom="16"
     inkscape:cx="11.3125"
     inkscape:cy="17.90625"
     inkscape:window-width="1920"
     inkscape:window-height="1054"
     inkscape:window-x="0"
     inkscape:window-y="26"
     inkscape:window-maximized="1"
     inkscape:current-layer="svg2">
    <sodipodi:guide
       position="2.938,5.947"
       orientation="1,0"
       id="guide3"
       inkscape:locked="false" />
    <sodipodi:guide
       position="32.941,10.266"
       orientation="1,0"
       id="guide4"
       inkscape:locked="false" />
  </sodipodi:namedview>
  <g
     id="g5"
     transform="matrix(1,0,0,-1,-0.947,33.662)">
    <path
       d="m 34.666,22.833 c 0,-0.909 -0.368,-1.733 -0.961,-2.336 0.757,-0.611 1.251,-1.535 1.251,-2.581 0,-0.503 -0.12,-0.975 -0.321,-1.404 -1.341,-4.326 -7.619,-4.01 -16.549,-4.221 -1.493,-0.035 -0.639,-1.798 -0.115,-5.668 0.341,-2.517 -1.282,-6.382 -4.01,-6.382 -4.498,0 -0.171,3.548 -4.148,12.322 -2.125,4.688 -6.875,2.062 -6.875,6.771 v 5.802 c 0,1.833 0.18,3.595 2.758,3.885 2.499,0.281 1.937,2.062 5.542,2.062 h 18.044 c 1.838,0 4.357,-1.493 4.357,-3.331 0,-0.762 -0.267,-1.456 -0.698,-2.018 1.023,-0.57 1.725,-1.649 1.725,-2.901 z"
       id="path1"
       style="fill:#5080e2;fill-opacity:1"
       sodipodi:nodetypes="cccscsscssscsccc" />
    <path
       d="m 23.02,21.249 h 8.604 c 1.17,0 2.268,-0.626 2.866,-1.633 0.246,-0.415 0.109,-0.952 -0.307,-1.199 -0.415,-0.247 -0.952,-0.108 -1.199,0.307 -0.283,0.479 -0.806,0.775 -1.361,0.775 h -8.81 c -0.873,0 -1.583,-0.71 -1.583,-1.583 0,-0.873 0.71,-1.583 1.583,-1.583 H 28.7 c 0.483,0 0.875,-0.392 0.875,-0.875 0,-0.483 -0.392,-0.875 -0.875,-0.875 h -5.888 c -1.838,0 -3.333,1.495 -3.333,3.333 0,1.025 0.475,1.932 1.205,2.544 -0.615,0.605 -0.998,1.445 -0.998,2.373 0,1.028 0.478,1.938 1.212,2.549 -0.611,0.604 -0.99,1.441 -0.99,2.367 0,1.12 0.606107,2.144335 1.409,2.713 0.802893,0.568665 2.481,0.621 2.481,0.621 h 6.506 c 1.17,0 2.27,-0.626 2.867,-1.633 0.247,-0.416 0.11,-0.953 -0.305,-1.199 -0.419,-0.251 -0.954,-0.11 -1.199,0.305 -0.289,0.487 -0.799,0.777 -1.363,0.777 h -7.063 c -0.873,0 -1.583,-0.711 -1.583,-1.584 0,-0.873 0.71,-1.583 1.583,-1.583 h 8.091 c 1.17,0 2.269,-0.625 2.867,-1.632 0.247,-0.415 0.11,-0.952 -0.305,-1.199 -0.417,-0.246 -0.953,-0.11 -1.199,0.305 -0.289,0.486 -0.799,0.776 -1.363,0.776 H 23.02 c -0.873,0 -1.583,-0.71 -1.583,-1.583 0,-0.873 0.709,-1.584 1.583,-1.584 z"
       id="path2"
       style="display:inline;fill:#1e4db0;fill-opacity:1"
       sodipodi:nodetypes="sscccssssssssscscszcscccssssscccssss" />
  </g>
</svg>
