<?xml version="1.0" encoding="UTF-8" standalone="no"?>
<svg
   viewBox="0 0 36 36"
   version="1.1"
   id="svg5"
   sodipodi:docname="1f44b.svg"
   inkscape:version="1.3.2 (091e20ef0f, 2023-11-25, custom)"
   xmlns:inkscape="http://www.inkscape.org/namespaces/inkscape"
   xmlns:sodipodi="http://sodipodi.sourceforge.net/DTD/sodipodi-0.dtd"
   xmlns="http://www.w3.org/2000/svg"
   xmlns:svg="http://www.w3.org/2000/svg">
  <defs
     id="defs5" />
  <sodipodi:namedview
     id="namedview5"
     pagecolor="#ffffff"
     bordercolor="#000000"
     borderopacity="0.25"
     inkscape:showpageshadow="2"
     inkscape:pageopacity="0.0"
     inkscape:pagecheckerboard="0"
     inkscape:deskcolor="#d1d1d1"
     showguides="true"
     inkscape:zoom="8"
     inkscape:cx="22.75"
     inkscape:cy="19.8125"
     inkscape:window-width="1920"
     inkscape:window-height="1054"
     inkscape:window-x="0"
     inkscape:window-y="26"
     inkscape:window-maximized="1"
     inkscape:current-layer="g10" />
  <g
     id="g10"
     transform="translate(-1.4485772)">
    <path
       d="m 7.02733,7.8205281 -0.968,-1.407 c -0.779,-1.111 -0.5,-2.313 0.612,-3.093 1.112,-0.777 5.846195,3.5839697 5.846195,3.5839697 -0.786,-1.122 -0.639,-2.544 0.483,-3.331 1.122,-0.784 2.67,-0.513 3.456,0.611 L 26.328,18.125 29.529248,29.944239 15.764854,20.424073 Z"
       id="path1"
       style="display:inline;fill:#1e4db0;fill-opacity:1"
       sodipodi:nodetypes="cccccccccc"
       inkscape:label="path1" />
    <path
       d="M 11.845,21.837 5.6333095,12.779421 c 0,0 -1.131,-1.649 0.519,-2.78 1.649,-1.131 2.78,0.518 2.78,0.518 l 5.7970685,8.413017 C 14.984378,18.722438 15.227,18.528 15.496,18.323 L 6.7323544,5.5408914 c 0,0 -1.131,-1.649 0.519,-2.78 1.649,-1.131 2.7799996,0.518 2.7799996,0.518 L 18.795,16.059 c 0.292,-0.179 0.581,-0.334 0.871,-0.498 L 12.997889,5.8371205 c 0,0 -1.131,-1.649 0.518,-2.78 1.649,-1.131 2.78,0.518 2.78,0.518 L 23.39,13.921 l 1.194,1.742 c -4.948,3.394 -2.301588,9.001679 1.736422,11.90704 0.750874,0.540256 1.534352,-0.06763 1.534352,-0.06763 C 23.517432,23.310885 21.025,19.315 25.974,15.922 L 24.515,8.62 c 0,0 -0.545,-1.924 1.378,-2.47 1.924,-0.545 2.47,1.379 2.47,1.379 l 1.685,5.004 c 0.668,1.984 1.379,3.961 2.32,5.831 2.657,5.28 1.612499,12.812662 -3.94,15.279 -7.435397,3.302694 -11.745817,-4.752658 -12.65945,-6.084873 z"
       id="path2"
       style="display:inline;fill:#5080e2;fill-opacity:1"
       sodipodi:nodetypes="ccccccccccccscccscccccccssc" />
  </g>
  <g
     fill="#5DADEC"
     id="g5">
    <path
       d="M12 32.042C8 32.042 3.958 28 3.958 24c0-.553-.405-1-.958-1s-1.042.447-1.042 1C1.958 30 6 34.042 12 34.042c.553 0 1-.489 1-1.042s-.447-.958-1-.958z"
       id="path3" />
    <path
       d="M7 34c-3 0-5-2-5-5 0-.553-.447-1-1-1s-1 .447-1 1c0 4 3 7 7 7 .553 0 1-.447 1-1s-.447-1-1-1zM24 2c-.552 0-1 .448-1 1s.448 1 1 1c4 0 8 3.589 8 8 0 .552.448 1 1 1s1-.448 1-1c0-5.514-4-10-10-10z"
       id="path4" />
    <path
       d="M29 .042c-.552 0-1 .406-1 .958s.448 1.042 1 1.042c3 0 4.958 2.225 4.958 4.958 0 .552.489 1 1.042 1s.958-.448.958-1C35.958 3.163 33 .042 29 .042z"
       id="path5" />
  </g>
</svg>
